<svg width="235" height="66" viewBox="0 0 940 267" fill="none" xmlns="http://www.w3.org/2000/svg">
<path d="M82.96 3.73916L200.771 3.29721C212.273 3.25406 222.787 9.79096 227.837 20.1251L274.336 115.276C278.223 123.229 278.399 132.492 274.817 140.587L228.425 245.437C223.637 256.258 212.936 263.253 201.103 263.298L84.7453 263.734C73.1667 263.778 62.5968 257.154 57.5867 246.716L6.94822 141.21C2.86584 132.704 3.02256 122.773 7.37134 114.401L56.4495 19.9109C61.5919 10.0103 71.8036 3.78101 82.96 3.73916Z" fill="#F3C623" stroke="#127681" stroke-width="5"/>
<path d="M202.98 225H75.8161C72.7829 225 70.4484 222.321 70.863 219.316L86.962 102.65C87.3034 100.176 89.4177 98.3333 91.9151 98.3333H188.031C190.547 98.3333 192.671 100.203 192.99 102.698L207.939 219.364C208.322 222.354 205.994 225 202.98 225Z" fill="#127681" stroke="#127681"/>
<path d="M109.764 97.667C109.764 41 171.496 41 171.496 97.667" stroke="#127681" stroke-width="5"/>
<ellipse cx="115.433" cy="125" rx="6.29921" ry="6.66666" fill="#F3C623"/>
<ellipse cx="165.827" cy="125" rx="6.29921" ry="6.66666" fill="#F3C623"/>
<path d="M72.5984 78.3333L75.4269 87.5464H84.5802L77.1751 93.2404L80.0036 102.454L72.5984 96.7595L65.1933 102.454L68.0218 93.2404L60.6166 87.5464H69.7699L72.5984 78.3333Z" fill="#127681"/>
<path d="M194.803 51.6667L197.632 60.8798H206.785L199.38 66.5738L202.208 75.7869L194.803 70.0929L187.398 75.7869L190.226 66.5738L182.821 60.8798H191.975L194.803 51.6667Z" fill="#127681"/>
<path d="M213.701 78.3333L216.529 87.5464H225.683L218.277 93.2404L221.106 102.454L213.701 96.7595L206.296 102.454L209.124 93.2404L201.719 87.5464H210.872L213.701 78.3333Z" fill="#127681"/>
<path d="M163.307 25L166.136 34.2131H175.289L167.884 39.9071L170.712 49.1202L163.307 43.4262L155.902 49.1202L158.73 39.9071L151.325 34.2131H160.479L163.307 25Z" fill="#127681"/>
<path d="M121.732 25L124.561 34.2131H133.714L126.309 39.9071L129.138 49.1202L121.732 43.4262L114.327 49.1202L117.156 39.9071L109.751 34.2131H118.904L121.732 25Z" fill="#127681"/>
<path d="M91.496 51.6667L94.3245 60.8798H103.478L96.0727 66.5738L98.9012 75.7869L91.496 70.0929L84.0908 75.7869L86.9194 66.5738L79.5142 60.8798H88.6675L91.496 51.6667Z" fill="#127681"/>
<path d="M446.194 49.89C446.194 47.79 445.234 45.81 443.314 43.95C440.554 41.31 436.744 39.99 431.884 39.99C427.624 39.99 422.914 40.92 417.754 42.78C415.054 43.74 412.714 45.06 410.734 46.74C407.674 49.38 406.144 52.02 406.144 54.66C406.144 58.2 408.394 61.38 412.894 64.2C414.574 65.22 417.934 66.9 422.974 69.24C428.074 71.52 431.794 73.38 434.134 74.82C437.674 76.98 440.104 79.29 441.424 81.75C442.804 84.21 443.494 86.49 443.494 88.59C443.494 91.59 442.504 94.65 440.524 97.77C437.044 103.35 431.944 108.15 425.224 112.17C417.484 116.85 408.154 119.19 397.234 119.19C386.734 119.19 378.394 116.52 372.214 111.18C367.414 107.1 365.014 101.85 365.014 95.43C365.014 91.35 366.484 86.85 369.424 81.93C372.424 77.01 376.084 73.53 380.404 71.49C381.304 71.13 381.964 71.01 382.384 71.13C382.864 71.25 382.504 71.82 381.304 72.84C378.724 74.88 376.654 77.13 375.094 79.59C371.734 84.87 370.054 90.6 370.054 96.78C370.054 100.86 371.194 104.43 373.474 107.49C377.554 112.95 384.634 116.04 394.714 116.76C395.854 116.88 397.534 116.94 399.754 116.94C402.034 116.94 405.094 116.52 408.934 115.68C412.834 114.9 416.584 113.58 420.184 111.72C427.924 107.64 432.934 102.36 435.214 95.88C435.934 93.96 436.294 92.1 436.294 90.3C436.294 86.22 434.464 82.62 430.804 79.5C428.824 77.94 424.774 75.87 418.654 73.29C412.594 70.65 408.514 68.64 406.414 67.26C401.794 64.14 399.484 60.45 399.484 56.19C399.484 52.47 401.554 48.84 405.694 45.3C411.634 40.26 420.034 37.74 430.894 37.74C435.994 37.74 440.134 38.52 443.314 40.08C446.554 41.58 448.534 43.86 449.254 46.92C449.374 47.52 449.434 48.12 449.434 48.72C449.434 51.06 448.354 53.16 446.194 55.02C444.694 56.22 442.684 57.18 440.164 57.9C439.084 58.2 438.484 58.08 438.364 57.54C438.244 56.76 438.994 56.28 440.614 56.1C443.494 55.74 445.264 54.3 445.924 51.78C446.104 51.12 446.194 50.49 446.194 49.89ZM533.437 97.32C533.077 95.28 532.837 93.6 532.717 92.28C532.597 90.96 532.537 89.61 532.537 88.23C532.537 86.79 532.777 85.98 533.257 85.8C533.317 85.8 533.407 85.8 533.527 85.8C535.327 85.8 538.657 84.57 543.517 82.11C548.377 79.65 553.897 76.35 560.077 72.21C566.317 68.01 572.797 62.67 579.517 56.19C586.297 49.65 591.877 43.05 596.257 36.39C597.037 35.25 597.697 34.68 598.237 34.68C598.417 34.68 598.597 34.77 598.777 34.95C599.017 35.13 599.137 35.43 599.137 35.85C599.137 36.27 598.927 36.84 598.507 37.56C591.667 48.9 582.037 59.58 569.617 69.6C557.197 79.56 546.817 85.59 538.477 87.69C538.357 87.87 538.297 88.26 538.297 88.86C538.297 89.4 538.357 90.33 538.477 91.65C538.597 92.97 539.167 95.52 540.187 99.3C541.267 103.02 542.497 106.47 543.877 109.65C547.957 119.01 553.327 123.69 559.987 123.69C563.827 123.69 567.487 122.88 570.967 121.26C574.507 119.64 577.057 117.3 578.617 114.24C578.977 113.4 579.427 112.98 579.967 112.98C580.507 112.98 580.447 113.64 579.787 114.96C578.167 118.26 575.317 121.17 571.237 123.69C567.217 126.27 563.077 127.56 558.817 127.56C554.557 127.56 550.537 126 546.757 122.88C540.157 117.48 535.717 108.96 533.437 97.32ZM545.497 46.2C546.157 45.06 547.147 43.68 548.467 42.06C549.847 40.38 551.017 39.42 551.977 39.18C552.997 38.88 553.957 38.73 554.857 38.73C555.817 38.73 556.537 39.12 557.017 39.9C557.497 40.68 557.737 41.46 557.737 42.24C557.737 43.02 557.167 43.92 556.027 44.94C554.107 46.68 551.077 47.76 546.937 48.18C543.517 54.36 539.587 64.29 535.147 77.97C533.527 82.95 531.337 88.26 528.577 93.9C525.877 99.48 522.967 104.37 519.847 108.57C516.727 112.77 512.587 116.46 507.427 119.64C502.327 122.88 496.537 124.98 490.057 125.94C487.957 126.24 485.617 126.39 483.037 126.39C480.517 126.39 477.757 126.06 474.757 125.4C463.777 122.88 456.697 117.48 453.517 109.2C452.557 106.68 452.077 104.19 452.077 101.73C452.077 99.21 452.407 96.63 453.067 93.99C453.787 91.35 455.287 89.01 457.567 86.97C459.907 84.87 461.827 83.73 463.327 83.55C464.107 83.43 464.497 83.61 464.497 84.09C464.497 84.39 464.317 84.63 463.957 84.81C462.517 85.47 460.777 87.03 458.737 89.49C456.097 92.73 454.777 96.75 454.777 101.55C454.777 106.47 456.277 110.46 459.277 113.52C462.937 117.36 467.257 119.76 472.237 120.72C475.657 121.38 478.477 121.71 480.697 121.71C482.917 121.71 484.867 121.47 486.547 120.99C491.467 119.85 496.057 118.05 500.317 115.59C504.637 113.19 508.237 110.64 511.117 107.94C514.057 105.18 516.847 101.91 519.487 98.13C522.187 94.29 524.287 90.93 525.787 88.05C527.347 85.17 530.077 79.32 533.977 70.5C537.877 61.68 541.297 54.3 544.237 48.36C543.337 48.48 540.757 48.72 536.497 49.08C528.637 49.74 522.517 50.7 518.137 51.96C509.917 54.24 504.067 58.62 500.587 65.1C498.907 68.22 498.067 71.25 498.067 74.19C498.067 75.75 498.307 77.28 498.787 78.78C500.107 82.8 502.717 84.81 506.617 84.81C511.537 84.81 514.987 82.26 516.967 77.16C517.927 74.7 518.407 72.66 518.407 71.04C518.407 69.42 518.347 68.28 518.227 67.62C518.107 66.96 518.197 66.63 518.497 66.63C518.977 66.75 519.397 67.14 519.757 67.8C520.297 69.06 520.567 70.56 520.567 72.3C520.567 73.98 519.997 75.93 518.857 78.15C517.057 81.93 514.537 84.42 511.297 85.62C509.317 86.34 507.457 86.7 505.717 86.7C502.717 86.7 500.017 85.62 497.617 83.46C494.377 80.58 492.757 76.83 492.757 72.21C492.757 65.67 495.817 60.18 501.937 55.74C507.577 51.54 515.737 48.87 526.417 47.73C529.657 47.37 533.347 47.07 537.487 46.83C541.687 46.53 544.357 46.32 545.497 46.2ZM554.947 42.24C554.947 41.58 554.677 41.25 554.137 41.25C553.477 41.25 552.787 41.55 552.067 42.15C551.407 42.69 550.237 43.95 548.557 45.93C550.297 45.69 551.617 45.33 552.517 44.85C554.137 44.07 554.947 43.2 554.947 42.24Z" fill="#F3C623"/>
<path d="M574.977 91.11C574.977 89.85 575.487 89.22 576.507 89.22C580.407 89.22 587.007 89.34 596.307 89.58C597.327 89.64 597.957 90.03 598.197 90.75C598.077 91.47 597.567 91.89 596.667 92.01C591.987 92.01 587.427 92.28 582.987 92.82C578.607 93.3 576.417 93.54 576.417 93.54C576.057 93.54 575.727 93.27 575.427 92.73C575.127 92.13 574.977 91.59 574.977 91.11ZM685.699 49.89C685.699 47.79 684.739 45.81 682.819 43.95C680.059 41.31 676.249 39.99 671.389 39.99C667.129 39.99 662.419 40.92 657.259 42.78C654.559 43.74 652.219 45.06 650.239 46.74C647.179 49.38 645.649 52.02 645.649 54.66C645.649 58.2 647.899 61.38 652.399 64.2C654.079 65.22 657.439 66.9 662.479 69.24C667.579 71.52 671.299 73.38 673.639 74.82C677.179 76.98 679.609 79.29 680.929 81.75C682.309 84.21 682.999 86.49 682.999 88.59C682.999 91.59 682.009 94.65 680.029 97.77C676.549 103.35 671.449 108.15 664.729 112.17C656.989 116.85 647.659 119.19 636.739 119.19C626.239 119.19 617.899 116.52 611.719 111.18C606.919 107.1 604.519 101.85 604.519 95.43C604.519 91.35 605.989 86.85 608.929 81.93C611.929 77.01 615.589 73.53 619.909 71.49C620.809 71.13 621.469 71.01 621.889 71.13C622.369 71.25 622.009 71.82 620.809 72.84C618.229 74.88 616.159 77.13 614.599 79.59C611.239 84.87 609.559 90.6 609.559 96.78C609.559 100.86 610.699 104.43 612.979 107.49C617.059 112.95 624.139 116.04 634.219 116.76C635.359 116.88 637.039 116.94 639.259 116.94C641.539 116.94 644.599 116.52 648.439 115.68C652.339 114.9 656.089 113.58 659.689 111.72C667.429 107.64 672.439 102.36 674.719 95.88C675.439 93.96 675.799 92.1 675.799 90.3C675.799 86.22 673.969 82.62 670.309 79.5C668.329 77.94 664.279 75.87 658.159 73.29C652.099 70.65 648.019 68.64 645.919 67.26C641.299 64.14 638.989 60.45 638.989 56.19C638.989 52.47 641.059 48.84 645.199 45.3C651.139 40.26 659.539 37.74 670.399 37.74C675.499 37.74 679.639 38.52 682.819 40.08C686.059 41.58 688.039 43.86 688.759 46.92C688.879 47.52 688.939 48.12 688.939 48.72C688.939 51.06 687.859 53.16 685.699 55.02C684.199 56.22 682.189 57.18 679.669 57.9C678.589 58.2 677.989 58.08 677.869 57.54C677.749 56.76 678.499 56.28 680.119 56.1C682.999 55.74 684.769 54.3 685.429 51.78C685.609 51.12 685.699 50.49 685.699 49.89ZM713.182 106.95C713.182 108.63 713.782 109.47 714.982 109.47C717.802 109.47 721.792 104.19 726.952 93.63C727.372 92.79 727.732 92.46 728.032 92.64C728.392 92.82 728.572 93.06 728.572 93.36C728.572 93.66 728.212 94.53 727.492 95.97C726.832 97.35 726.142 98.7 725.422 100.02C724.762 101.28 723.772 102.96 722.452 105.06C719.692 109.26 716.752 111.36 713.632 111.36C711.592 111.36 709.972 110.52 708.772 108.84C708.232 108.06 707.962 107.01 707.962 105.69C707.962 104.31 708.262 102.66 708.862 100.74C709.462 98.82 711.112 95.7 713.812 91.38C714.472 90.3 714.802 89.46 714.802 88.86C714.802 88.2 714.292 87.87 713.272 87.87C712.252 87.87 710.302 89.22 707.422 91.92C703.102 95.88 698.902 101.82 694.822 109.74C694.402 110.64 693.292 111.09 691.492 111.09C689.872 111.21 688.852 111.39 688.432 111.63C699.832 87.93 708.082 71.4 713.182 62.04C714.322 59.94 715.312 58.47 716.152 57.63C717.052 56.79 718.102 56.37 719.302 56.37C719.602 56.37 720.232 56.46 721.192 56.64C722.152 56.76 722.872 56.79 723.352 56.73C721.552 58.59 718.312 63.75 713.632 72.21C709.012 80.61 704.572 89.16 700.312 97.86C703.132 94.32 705.652 91.56 707.872 89.58C710.152 87.6 712.912 85.74 716.152 84C719.392 82.2 721.762 81.3 723.262 81.3C723.622 81.3 723.952 81.36 724.252 81.48C716.872 94.44 713.182 102.93 713.182 106.95ZM749.725 79.5C754.105 79.5 756.295 82.26 756.295 87.78C756.295 90.3 755.635 93 754.315 95.88C752.635 99.78 750.115 103.32 746.755 106.5C747.535 108 748.945 108.75 750.985 108.75C752.605 108.75 754.135 107.94 755.575 106.32C757.375 104.46 758.665 102.84 759.445 101.46C760.225 100.02 760.795 98.97 761.155 98.31C761.515 97.65 761.965 96.72 762.505 95.52C763.105 94.26 763.465 93.51 763.585 93.27C763.705 92.97 763.915 92.82 764.215 92.82C764.815 92.76 765.115 92.97 765.115 93.45C765.115 93.63 765.055 93.84 764.935 94.08L764.395 95.34C764.035 96.18 763.765 96.78 763.585 97.14C763.405 97.5 763.075 98.16 762.595 99.12C762.175 100.02 761.785 100.74 761.425 101.28C761.125 101.82 760.675 102.54 760.075 103.44C759.535 104.34 759.025 105.06 758.545 105.6C758.125 106.14 757.585 106.74 756.925 107.4C756.265 108.06 755.635 108.57 755.035 108.93C753.535 109.83 752.125 110.28 750.805 110.28C748.345 110.28 746.425 109.5 745.045 107.94C742.285 109.98 739.735 111 737.395 111C733.015 111 730.825 108.24 730.825 102.72C730.825 100.2 731.485 97.5 732.805 94.62C734.605 90.42 737.125 86.85 740.365 83.91C743.665 80.97 746.785 79.5 749.725 79.5ZM750.715 82.29C749.095 82.29 747.175 83.37 744.955 85.53C742.735 87.69 740.755 90.63 739.015 94.35C736.915 98.67 735.865 102.21 735.865 104.97C735.865 107.73 736.915 109.11 739.015 109.11C740.515 109.11 742.195 108.3 744.055 106.68C743.095 105.3 742.615 103.83 742.615 102.27C742.735 99.69 743.785 98.4 745.765 98.4C746.545 98.4 747.175 98.67 747.655 99.21C748.195 99.75 748.465 100.26 748.465 100.74C748.465 101.16 748.405 101.61 748.285 102.09C749.305 100.59 750.475 98.46 751.795 95.7C753.295 92.64 754.045 89.64 754.045 86.7C754.045 83.76 752.935 82.29 750.715 82.29ZM796.792 86.52C796.792 89.16 796.102 92.07 794.722 95.25C793.342 98.43 791.422 101.49 788.962 104.43C786.562 107.37 783.622 109.38 780.142 110.46C778.822 110.82 777.292 111 775.552 111C773.872 111 772.012 110.46 769.972 109.38L761.422 130.71C760.522 132.63 759.682 133.89 758.902 134.49C758.122 135.09 757.372 135.39 756.652 135.39C755.932 135.39 755.512 135.39 755.392 135.39C755.212 135.39 754.672 135.3 753.772 135.12C752.812 134.94 752.092 134.88 751.612 134.94C752.932 133.68 756.292 127.68 761.692 116.94C767.032 106.26 770.062 99.06 770.782 95.34C770.122 96.3 769.492 96.81 768.892 96.87C768.532 96.87 768.532 96.54 768.892 95.88C769.252 95.16 769.852 93.81 770.692 91.83C771.772 89.25 772.312 86.88 772.312 84.72C772.312 82.5 771.892 81.21 771.052 80.85C774.652 80.25 776.752 79.98 777.352 80.04C777.952 80.04 778.312 80.28 778.432 80.76C778.612 81.24 778.702 81.78 778.702 82.38C778.702 86.04 777.862 90.12 776.182 94.62L777.982 91.74C780.142 88.26 781.702 86.01 782.662 84.99C783.682 83.97 784.762 82.92 785.902 81.84C787.642 80.16 789.322 79.32 790.942 79.32C791.422 79.32 791.872 79.38 792.292 79.5C795.292 80.28 796.792 82.62 796.792 86.52ZM792.472 85.62C792.472 84.66 792.262 83.79 791.842 83.01C791.482 82.17 790.882 81.75 790.042 81.75C787.942 81.75 785.482 83.7 782.662 87.6C779.902 91.5 775.912 98.31 770.692 108.03C771.472 108.81 772.552 109.2 773.932 109.2C775.312 109.2 777.262 108.15 779.782 106.05C783.802 102.69 787.162 98.52 789.862 93.54C791.602 90.3 792.472 87.66 792.472 85.62Z" fill="#127681"/>
<path d="M331.972 179.25C321.872 174.25 313.747 171.75 307.597 171.75C301.447 171.75 296.297 173.5 292.147 177C288.197 180.35 286.222 183.95 286.222 187.8C286.222 189.8 286.947 191.25 288.397 192.15C290.347 193.25 292.197 193.8 293.947 193.8C294.597 193.8 295.247 193.725 295.897 193.575C298.197 193.025 300.147 192.1 301.747 190.8C303.347 189.5 304.147 188.45 304.147 187.65C304.147 186.85 304.372 186.3 304.822 186C305.322 185.7 305.572 185.8 305.572 186.3C305.572 186.6 305.497 186.95 305.347 187.35C304.297 190.9 301.847 193.325 297.997 194.625C296.347 195.175 294.647 195.45 292.897 195.45C291.147 195.45 289.422 194.925 287.722 193.875C284.522 192.075 282.922 189.325 282.922 185.625C282.922 181.175 284.972 177.125 289.072 173.475C293.172 169.825 298.172 168 304.072 168C306.972 168 309.897 168.425 312.847 169.275C320.247 171.275 326.947 174.175 332.947 177.975C334.497 176.275 336.097 175.425 337.747 175.425C339.597 175.425 340.547 176.05 340.597 177.3C340.647 177.85 340.472 178.1 340.072 178.05C339.822 178 339.547 177.8 339.247 177.45C338.847 177.3 338.472 177.225 338.122 177.225C337.022 177.225 335.897 177.775 334.747 178.875C338.447 180.725 342.797 182.3 347.797 183.6C349.747 184.05 351.297 184.275 352.447 184.275C353.597 184.275 354.472 184.25 355.072 184.2C357.272 183.95 358.697 183.125 359.347 181.725C359.697 180.975 359.997 180.525 360.247 180.375C360.547 180.175 360.722 180.25 360.772 180.6C360.772 180.75 360.772 180.95 360.772 181.2C360.772 183.25 359.722 184.8 357.622 185.85C356.322 186.5 355.097 186.825 353.947 186.825C352.797 186.825 351.547 186.725 350.197 186.525C348.847 186.275 347.097 185.8 344.947 185.1C342.797 184.4 341.047 183.75 339.697 183.15C338.347 182.55 337.022 181.925 335.722 181.275L333.622 180.225C331.022 183.175 328.247 188.25 325.297 195.45C324.347 197.85 323.797 199.225 323.647 199.575C326.547 199.975 329.222 200.175 331.672 200.175C334.122 200.175 336.047 200.15 337.447 200.1C338.897 200 339.647 200.15 339.697 200.55C339.747 201.65 336.022 202.2 328.522 202.2C326.122 202.2 324.197 202.1 322.747 201.9C319.647 210.4 316.547 216.7 313.447 220.8C312.147 222.5 310.522 224.275 308.572 226.125C306.622 228.025 304.547 229.55 302.347 230.7C297.397 233.4 291.872 234.75 285.772 234.75C279.672 234.75 274.497 233.4 270.247 230.7C263.797 226.7 260.572 220.925 260.572 213.375C260.572 210.825 260.997 208.1 261.847 205.2C262.447 203.3 263.547 201.625 265.147 200.175C266.797 198.725 268.172 197.85 269.272 197.55C270.372 197.2 270.872 197.125 270.772 197.325C270.722 197.525 269.872 198.2 268.222 199.35C264.972 201.7 263.047 204.6 262.447 208.05C262.197 209.3 262.072 210.75 262.072 212.4C262.072 214.05 262.447 215.85 263.197 217.8C265.247 223.1 269.497 227 275.947 229.5C278.997 230.65 282.272 231.225 285.772 231.225C289.272 231.225 292.747 230.525 296.197 229.125C299.647 227.725 302.847 225.625 305.797 222.825C311.547 217.375 316.297 210.325 320.047 201.675L315.247 201.6C309.397 201.6 305.547 202.95 303.697 205.65C303.247 206.2 302.872 206.35 302.572 206.1C302.322 205.8 302.297 205.425 302.497 204.975C303.597 202.575 305.147 200.85 307.147 199.8C309.147 198.75 311.122 198.225 313.072 198.225C315.072 198.225 317.747 198.45 321.097 198.9C322.647 195.1 324.597 191.15 326.947 187.05C329.347 182.95 331.022 180.35 331.972 179.25ZM368.411 204.675C367.511 205.575 366.236 207.625 364.586 210.825C362.936 213.975 361.936 216.35 361.586 217.95C361.286 219.5 361.136 220.775 361.136 221.775C361.136 222.725 361.511 223.2 362.261 223.2C363.211 223.2 364.386 222.325 365.786 220.575C367.836 218.025 369.861 214.7 371.861 210.6C372.061 210.15 372.286 209.9 372.536 209.85C372.936 209.7 373.136 209.85 373.136 210.3C373.136 210.55 373.061 210.85 372.911 211.2C368.311 220.5 364.436 225.15 361.286 225.15C359.836 225.15 358.661 224.45 357.761 223.05C357.311 222.3 357.086 221.3 357.086 220.05C357.086 218.8 357.336 217.275 357.836 215.475C353.836 221.925 350.386 225.15 347.486 225.15C346.686 225.15 345.961 224.9 345.311 224.4C343.811 223.35 343.061 221.55 343.061 219C343.061 214.1 345.186 209.125 349.436 204.075C351.836 201.275 354.786 199.45 358.286 198.6C359.236 198.35 360.136 198.225 360.986 198.225C363.286 198.225 365.236 199.025 366.836 200.625C367.336 201.175 367.486 201.7 367.286 202.2C367.086 202.7 366.661 202.9 366.011 202.8C365.461 201 364.261 200.1 362.411 200.1C360.261 200.1 357.611 201.8 354.461 205.2C352.661 207.2 350.986 209.55 349.436 212.25C347.486 215.5 346.511 218.1 346.511 220.05C346.511 222 347.136 222.975 348.386 222.975C351.386 222.975 355.311 218.375 360.161 209.175C361.111 207.325 361.911 206.075 362.561 205.425C363.211 204.725 364.036 204.375 365.036 204.375C365.236 204.375 365.736 204.45 366.536 204.6C367.386 204.75 368.011 204.775 368.411 204.675ZM384.281 223.575C384.931 223.675 385.381 223.725 385.631 223.725C387.631 223.725 389.606 222.55 391.556 220.2C392.606 218.9 394.481 215.625 397.181 210.375C397.281 210.125 397.456 210 397.706 210C398.156 209.95 398.381 210.125 398.381 210.525C398.381 210.625 398.256 210.925 398.006 211.425C397.806 211.875 397.606 212.35 397.406 212.85C397.206 213.3 396.881 213.975 396.431 214.875C395.981 215.775 395.581 216.5 395.231 217.05C394.931 217.6 394.531 218.275 394.031 219.075C393.531 219.875 393.031 220.5 392.531 220.95L390.956 222.6C390.106 223.45 389.106 224.05 387.956 224.4C386.106 225 384.306 225.05 382.556 224.55C381.406 225.05 380.381 225.3 379.481 225.3C375.931 225.3 373.781 223.9 373.031 221.1C372.881 220.45 372.806 219.675 372.806 218.775C372.806 217.825 373.106 216.925 373.706 216.075C374.356 215.225 375.031 214.775 375.731 214.725C378.281 209.875 380.456 205.5 382.256 201.6C384.256 197.35 386.581 195.225 389.231 195.225C389.931 195.225 390.606 195.4 391.256 195.75C391.956 196.05 392.206 196.4 392.006 196.8C391.856 197.2 391.506 197.275 390.956 197.025C390.406 196.775 389.931 196.65 389.531 196.65C389.131 196.65 388.781 196.725 388.481 196.875C386.781 197.675 385.931 199.4 385.931 202.05C385.931 203.45 386.131 204.6 386.531 205.5C386.931 206.4 387.381 207.375 387.881 208.425C389.031 211.025 389.606 213.15 389.606 214.8C389.606 216.45 389.081 218.075 388.031 219.675C386.981 221.275 385.731 222.575 384.281 223.575ZM381.731 223.05C383.931 221.35 385.031 218.6 385.031 214.8C385.031 213.25 384.856 211.125 384.506 208.425C384.156 205.725 383.981 203.9 383.981 202.95C383.981 202 384.006 201.35 384.056 201C380.256 208.6 377.906 213.225 377.006 214.875C378.056 214.875 378.581 215.625 378.581 217.125C378.581 220.075 379.631 222.05 381.731 223.05ZM376.106 221.025C376.106 221.325 376.131 221.65 376.181 222C376.581 223.35 377.506 224.025 378.956 224.025C379.556 224.025 380.056 223.925 380.456 223.725C378.606 222.575 377.606 220.7 377.456 218.1C376.556 219 376.106 219.975 376.106 221.025ZM416.371 221.625C416.371 223.025 416.871 223.725 417.871 223.725C420.221 223.725 423.546 219.325 427.846 210.525C428.196 209.825 428.496 209.55 428.746 209.7C429.046 209.85 429.196 210.05 429.196 210.3C429.196 210.55 428.896 211.275 428.296 212.475C427.746 213.625 427.171 214.75 426.571 215.85C426.021 216.9 425.196 218.3 424.096 220.05C421.796 223.55 419.346 225.3 416.746 225.3C415.046 225.3 413.696 224.6 412.696 223.2C412.246 222.55 412.021 221.675 412.021 220.575C412.021 219.425 412.271 218.05 412.771 216.45C413.271 214.85 414.646 212.25 416.896 208.65C417.446 207.75 417.721 207.05 417.721 206.55C417.721 206 417.296 205.725 416.446 205.725C415.596 205.725 413.971 206.85 411.571 209.1C407.971 212.4 404.471 217.35 401.071 223.95C400.721 224.7 399.796 225.075 398.296 225.075C396.946 225.175 396.096 225.325 395.746 225.525C405.246 205.775 412.121 192 416.371 184.2C417.321 182.45 418.146 181.225 418.846 180.525C419.596 179.825 420.471 179.475 421.471 179.475C421.721 179.475 422.246 179.55 423.046 179.7C423.846 179.8 424.446 179.825 424.846 179.775C423.346 181.325 420.646 185.625 416.746 192.675C412.896 199.675 409.196 206.8 405.646 214.05C407.996 211.1 410.096 208.8 411.946 207.15C413.846 205.5 416.146 203.95 418.846 202.5C421.546 201 423.521 200.25 424.771 200.25C425.071 200.25 425.346 200.3 425.596 200.4C419.446 211.2 416.371 218.275 416.371 221.625ZM444.198 195.825C443.498 196.425 442.723 196.725 441.873 196.725C441.023 196.725 440.348 196.425 439.848 195.825C439.348 195.225 439.148 194.5 439.248 193.65C439.398 192.8 439.823 192.075 440.523 191.475C441.223 190.875 441.998 190.575 442.848 190.575C443.698 190.575 444.373 190.875 444.873 191.475C445.423 192.075 445.623 192.8 445.473 193.65C445.323 194.5 444.898 195.225 444.198 195.825ZM436.848 223.35C437.798 223.35 438.798 222.875 439.848 221.925C441.698 220.075 444.048 216.3 446.898 210.6C447.248 209.85 447.598 209.625 447.948 209.925C448.048 210.025 448.098 210.2 448.098 210.45C448.098 210.65 447.898 211.2 447.498 212.1C447.098 212.95 446.723 213.725 446.373 214.425C446.073 215.125 445.448 216.275 444.498 217.875C443.598 219.425 442.773 220.625 442.023 221.475C439.973 223.825 438.023 225 436.173 225C434.373 225 433.073 224.45 432.273 223.35C431.473 222.25 431.073 221.025 431.073 219.675C431.073 218.325 431.398 216.85 432.048 215.25L436.848 203.025C436.948 202.725 436.998 202.325 436.998 201.825C436.998 201.325 436.698 200.675 436.098 199.875L440.223 199.8C441.373 199.8 442.048 200.025 442.248 200.475C442.448 200.875 442.298 201.525 441.798 202.425L435.798 216.45C434.948 218.3 434.523 219.875 434.523 221.175C434.523 222.625 435.298 223.35 436.848 223.35ZM466.61 198.75C470.26 198.75 472.085 201.05 472.085 205.65C472.085 207.75 471.535 210 470.435 212.4C469.035 215.65 466.935 218.6 464.135 221.25C464.785 222.5 465.96 223.125 467.66 223.125C469.01 223.125 470.285 222.45 471.485 221.1C472.985 219.55 474.06 218.2 474.71 217.05C475.36 215.85 475.835 214.975 476.135 214.425C476.435 213.875 476.81 213.1 477.26 212.1C477.76 211.05 478.06 210.425 478.16 210.225C478.26 209.975 478.435 209.85 478.685 209.85C479.185 209.8 479.435 209.975 479.435 210.375C479.435 210.525 479.385 210.7 479.285 210.9L478.835 211.95C478.535 212.65 478.31 213.15 478.16 213.45C478.01 213.75 477.735 214.3 477.335 215.1C476.985 215.85 476.66 216.45 476.36 216.9C476.11 217.35 475.735 217.95 475.235 218.7C474.785 219.45 474.36 220.05 473.96 220.5C473.61 220.95 473.16 221.45 472.61 222C472.06 222.55 471.535 222.975 471.035 223.275C469.785 224.025 468.61 224.4 467.51 224.4C465.46 224.4 463.86 223.75 462.71 222.45C460.41 224.15 458.285 225 456.335 225C452.685 225 450.86 222.7 450.86 218.1C450.86 216 451.41 213.75 452.51 211.35C454.01 207.85 456.11 204.875 458.81 202.425C461.56 199.975 464.16 198.75 466.61 198.75ZM467.435 201.075C466.085 201.075 464.485 201.975 462.635 203.775C460.785 205.575 459.135 208.025 457.685 211.125C455.935 214.725 455.06 217.675 455.06 219.975C455.06 222.275 455.935 223.425 457.685 223.425C458.935 223.425 460.335 222.75 461.885 221.4C461.085 220.25 460.685 219.025 460.685 217.725C460.785 215.575 461.66 214.5 463.31 214.5C463.96 214.5 464.485 214.725 464.885 215.175C465.335 215.625 465.56 216.05 465.56 216.45C465.56 216.8 465.51 217.175 465.41 217.575C466.26 216.325 467.235 214.55 468.335 212.25C469.585 209.7 470.21 207.2 470.21 204.75C470.21 202.3 469.285 201.075 467.435 201.075ZM506.732 200.4C500.582 211.2 497.507 218.25 497.507 221.55C497.507 222.85 497.982 223.5 498.932 223.5C501.482 223.5 504.907 219.175 509.207 210.525C509.507 209.825 509.807 209.55 510.107 209.7C510.407 209.85 510.557 210.05 510.557 210.3C510.557 210.55 510.457 210.85 510.257 211.2C507.607 216.55 505.357 220.25 503.507 222.3C501.707 224.3 499.882 225.3 498.032 225.3C496.232 225.3 494.857 224.6 493.907 223.2C493.407 222.55 493.157 221.675 493.157 220.575C493.157 219.425 493.407 218.05 493.907 216.45C494.407 214.85 495.782 212.25 498.032 208.65C498.582 207.75 498.857 207.05 498.857 206.55C498.857 206 498.432 205.725 497.582 205.725C496.732 205.725 495.107 206.85 492.707 209.1C489.107 212.4 485.632 217.35 482.282 223.95C481.982 224.45 481.632 224.775 481.232 224.925C480.882 225.025 480.157 225.1 479.057 225.15C477.957 225.2 477.232 225.325 476.882 225.525C477.682 223.925 479.257 220.65 481.607 215.7C485.807 206.95 488.557 201.95 489.857 200.7C490.457 200.1 491.282 199.8 492.332 199.8C492.532 199.8 493.032 199.875 493.832 200.025C494.682 200.175 495.307 200.2 495.707 200.1C493.857 201.1 490.832 205.8 486.632 214.2C488.982 211.3 491.107 209 493.007 207.3C494.957 205.55 497.282 203.95 499.982 202.5C502.682 201 504.657 200.25 505.907 200.25C506.207 200.25 506.482 200.3 506.732 200.4ZM551.357 201.12L555.377 201C557.057 201 558.177 201.36 558.737 202.08C559.017 202.4 559.157 202.72 559.157 203.04C559.157 203.36 559.057 203.64 558.857 203.88C558.377 204.48 557.477 204.78 556.157 204.78C553.877 204.78 551.857 203.9 550.097 202.14C545.617 202.82 542.217 205.2 539.897 209.28C538.417 211.92 537.677 214.5 537.677 217.02C537.677 218.42 537.897 219.8 538.337 221.16C539.657 225 542.517 226.92 546.917 226.92C550.837 226.92 554.237 225.6 557.117 222.96C559.997 220.32 561.437 217.7 561.437 215.1C561.437 213.86 560.897 212.84 559.817 212.04C558.777 211.2 557.657 210.72 556.457 210.6C555.297 210.44 554.297 210.36 553.457 210.36C552.657 210.36 551.597 210.46 550.277 210.66C548.997 210.82 547.717 211.34 546.437 212.22C544.917 213.26 544.157 214.64 544.157 216.36C544.157 218.08 545.497 219.64 548.177 221.04C548.577 221.28 548.737 221.6 548.657 222C548.617 222.36 548.457 222.46 548.177 222.3C545.657 220.94 543.877 219.4 542.837 217.68C542.117 216.56 541.757 215.62 541.757 214.86C541.757 214.1 541.857 213.48 542.057 213C542.537 211.6 543.737 210.42 545.657 209.46C547.577 208.5 550.017 208.02 552.977 208.02H563.597C565.677 208.02 568.237 207.32 571.277 205.92C572.757 205.24 573.837 204.44 574.517 203.52C574.837 203.04 574.997 202.54 574.997 202.02C574.997 201.46 574.877 200.98 574.637 200.58C574.397 200.18 574.297 199.9 574.337 199.74C574.377 199.58 574.477 199.5 574.637 199.5C574.837 199.5 574.997 199.6 575.117 199.8C575.677 200.76 575.957 201.68 575.957 202.56C575.957 203.4 575.697 204.18 575.177 204.9C574.177 206.42 572.477 207.64 570.077 208.56C567.677 209.48 565.197 209.94 562.637 209.94C562.557 209.94 562.457 209.94 562.337 209.94C563.857 211.18 564.617 212.76 564.617 214.68C564.617 217.36 563.057 220.12 559.937 222.96C558.457 224.36 556.557 225.5 554.237 226.38C551.917 227.26 549.477 227.7 546.917 227.7C540.717 227.7 536.337 225.9 533.777 222.3C532.497 220.5 531.857 218.76 531.857 217.08C531.857 215.4 532.117 213.84 532.637 212.4C534.037 208.6 536.857 205.66 541.097 203.58C543.537 202.38 546.277 201.62 549.317 201.3C548.197 199.74 547.637 197.78 547.637 195.42C547.677 193.06 548.717 190.84 550.757 188.76C552.797 186.68 555.137 185.18 557.777 184.26C560.457 183.3 563.057 182.82 565.577 182.82C567.657 182.82 569.417 183.24 570.857 184.08C572.337 184.92 573.077 186.26 573.077 188.1C573.077 189.26 572.717 190.3 571.997 191.22C571.277 192.1 570.457 192.54 569.537 192.54C568.657 192.54 567.937 192.28 567.377 191.76C566.857 191.2 566.597 190.52 566.597 189.72C566.597 188.92 566.857 188.26 567.377 187.74C567.937 187.22 568.577 186.96 569.297 186.96C569.777 186.96 570.237 187.08 570.677 187.32C571.117 187.52 571.377 187.76 571.457 188.04C571.497 187.8 571.517 187.56 571.517 187.32C571.517 186.44 571.157 185.76 570.437 185.28C569.677 184.72 568.537 184.44 567.017 184.44C565.497 184.44 563.717 184.86 561.677 185.7C559.637 186.5 557.717 187.68 555.917 189.24C554.117 190.8 552.697 192.72 551.657 195C551.097 196.28 550.817 197.42 550.817 198.42C550.817 199.42 550.997 200.32 551.357 201.12ZM558.137 202.98C558.137 202.26 556.657 201.9 553.697 201.9C553.097 201.9 552.477 201.92 551.837 201.96C552.797 203.16 554.077 203.76 555.677 203.76C557.317 203.76 558.137 203.5 558.137 202.98ZM642.571 191.625C643.721 191.625 644.296 192.35 644.296 193.8C644.296 195.35 643.671 196.8 642.421 198.15C640.221 200.6 638.196 203.675 636.346 207.375C633.546 212.975 632.146 218.025 632.146 222.525C632.146 224.275 632.446 225.55 633.046 226.35C633.696 227.15 634.421 227.55 635.221 227.55C637.621 227.55 640.421 225.6 643.621 221.7C646.471 218.05 648.646 214.5 650.146 211.05C650.546 210.25 650.946 209.9 651.346 210C651.746 210.1 651.771 210.55 651.421 211.35C649.371 215.9 647.046 219.9 644.446 223.35C643.096 225.2 641.421 226.725 639.421 227.925C637.421 229.175 635.421 229.8 633.421 229.8C631.471 229.8 629.996 229 628.996 227.4C627.996 225.85 627.496 224 627.496 221.85C627.496 219.7 627.746 217.575 628.246 215.475C628.796 213.375 629.496 211.75 630.346 210.6C625.296 216.65 619.921 221.5 614.221 225.15C611.221 227 607.896 228.1 604.246 228.45C603.896 228.5 603.296 228.525 602.446 228.525C601.646 228.525 600.671 228.225 599.521 227.625C595.921 226.125 594.121 222.475 594.121 216.675C594.121 210.825 596.021 204.5 599.821 197.7C601.821 194.1 604.021 190.925 606.421 188.175C603.071 186.575 600.571 184.85 598.921 183C597.721 181.65 597.121 180.025 597.121 178.125C597.121 176.225 597.496 175.025 598.246 174.525C598.746 173.875 599.196 173.75 599.596 174.15C599.896 174.6 599.896 175.15 599.596 175.8C599.346 176.45 599.221 177.075 599.221 177.675C599.221 179.025 599.946 180.525 601.396 182.175C602.846 183.825 604.971 185.3 607.771 186.6C619.521 173.55 631.721 167.025 644.371 167.025C648.321 167.025 651.446 167.925 653.746 169.725C656.096 171.475 657.271 173.75 657.271 176.55C657.271 179.6 655.571 182.55 652.171 185.4C650.471 186.9 648.046 188.2 644.896 189.3C640.096 191 634.371 191.85 627.721 191.85C621.121 191.85 615.646 191.15 611.296 189.75C606.246 196.9 602.771 202.85 600.871 207.6C598.971 212.3 598.021 215.95 598.021 218.55C598.021 219.1 598.046 219.6 598.096 220.05C598.696 224.2 600.796 226.275 604.396 226.275C608.446 226.275 613.146 224.075 618.496 219.675C622.296 216.475 626.021 212.675 629.671 208.275C633.321 203.875 636.021 200 637.771 196.65C639.571 193.3 641.171 191.625 642.571 191.625ZM654.196 175.65C654.196 173.5 653.296 171.85 651.496 170.7C649.746 169.55 647.321 168.975 644.221 168.975C641.121 168.975 638.021 169.475 634.921 170.475C631.871 171.475 628.996 172.95 626.296 174.9C623.646 176.85 621.271 178.85 619.171 180.9C617.121 182.95 614.896 185.4 612.496 188.25C616.246 189.45 620.846 190.05 626.296 190.05C636.546 190.05 644.021 188.4 648.721 185.1C652.371 182.55 654.196 179.4 654.196 175.65ZM670.239 207.75C671.989 205.65 672.864 203.875 672.864 202.425C672.864 200.975 672.264 200.25 671.064 200.25C668.714 200.25 666.039 202.4 663.039 206.7C662.089 208.05 661.164 209.825 660.264 212.025C659.364 214.225 658.914 216.225 658.914 218.025C658.914 219.775 659.264 221.2 659.964 222.3C660.714 223.4 661.839 223.95 663.339 223.95C664.889 223.95 666.314 223.6 667.614 222.9C668.914 222.15 670.139 221 671.289 219.45C672.489 217.85 673.389 216.525 673.989 215.475C674.589 214.425 675.414 212.85 676.464 210.75C676.814 210.05 677.114 209.775 677.364 209.925C677.614 210.025 677.739 210.2 677.739 210.45C677.739 210.65 677.389 211.475 676.689 212.925C676.039 214.325 675.364 215.65 674.664 216.9C674.014 218.15 673.064 219.55 671.814 221.1C669.564 223.9 666.489 225.3 662.589 225.3C659.789 225.3 657.764 224.625 656.514 223.275C655.314 221.875 654.714 220.275 654.714 218.475C654.714 216.275 655.239 213.875 656.289 211.275C657.389 208.675 658.639 206.425 660.039 204.525C662.939 200.575 666.289 198.6 670.089 198.6C671.939 198.6 673.264 199.05 674.064 199.95C674.914 200.8 675.339 201.8 675.339 202.95C675.339 204.65 674.639 206.1 673.239 207.3C672.539 207.95 671.939 208.275 671.439 208.275C670.989 208.275 670.589 208.1 670.239 207.75ZM695.722 207.75C697.472 205.65 698.347 203.875 698.347 202.425C698.347 200.975 697.747 200.25 696.547 200.25C694.197 200.25 691.522 202.4 688.522 206.7C687.572 208.05 686.647 209.825 685.747 212.025C684.847 214.225 684.397 216.225 684.397 218.025C684.397 219.775 684.747 221.2 685.447 222.3C686.197 223.4 687.322 223.95 688.822 223.95C690.372 223.95 691.797 223.6 693.097 222.9C694.397 222.15 695.622 221 696.772 219.45C697.972 217.85 698.872 216.525 699.472 215.475C700.072 214.425 700.897 212.85 701.947 210.75C702.297 210.05 702.597 209.775 702.847 209.925C703.097 210.025 703.222 210.2 703.222 210.45C703.222 210.65 702.872 211.475 702.172 212.925C701.522 214.325 700.847 215.65 700.147 216.9C699.497 218.15 698.547 219.55 697.297 221.1C695.047 223.9 691.972 225.3 688.072 225.3C685.272 225.3 683.247 224.625 681.997 223.275C680.797 221.875 680.197 220.275 680.197 218.475C680.197 216.275 680.722 213.875 681.772 211.275C682.872 208.675 684.122 206.425 685.522 204.525C688.422 200.575 691.772 198.6 695.572 198.6C697.422 198.6 698.747 199.05 699.547 199.95C700.397 200.8 700.822 201.8 700.822 202.95C700.822 204.65 700.122 206.1 698.722 207.3C698.022 207.95 697.422 208.275 696.922 208.275C696.472 208.275 696.072 208.1 695.722 207.75ZM710.704 213.45C710.004 215.15 709.654 217.05 709.654 219.15C709.654 220.55 709.954 221.675 710.554 222.525C711.204 223.325 712.104 223.725 713.254 223.725C717.804 223.725 721.929 219.45 725.629 210.9C725.979 210.1 726.404 209.75 726.904 209.85C727.104 209.9 727.204 210.025 727.204 210.225C727.204 210.425 726.629 211.75 725.479 214.2C724.379 216.6 723.254 218.55 722.104 220.05C719.554 223.55 716.404 225.3 712.654 225.3C710.654 225.3 708.954 224.65 707.554 223.35C706.154 222.05 705.454 220.275 705.454 218.025C705.454 215.775 705.979 213.4 707.029 210.9C708.129 208.35 709.604 206 711.454 203.85C713.304 201.65 715.429 200.05 717.829 199.05C718.979 198.55 720.079 198.3 721.129 198.3C722.179 198.3 723.154 198.6 724.054 199.2C724.904 199.9 725.329 200.675 725.329 201.525C725.329 204.525 723.529 207.4 719.929 210.15C718.829 211 717.279 211.775 715.279 212.475C713.279 213.125 711.754 213.45 710.704 213.45ZM723.304 201.45C723.304 200.45 722.904 199.95 722.104 199.95C720.704 199.95 718.579 201.675 715.729 205.125C714.029 207.225 712.529 209.575 711.229 212.175C712.079 212.175 713.304 211.875 714.904 211.275C716.554 210.675 717.979 209.875 719.179 208.875C721.929 206.525 723.304 204.05 723.304 201.45ZM738.311 223.575C738.961 223.675 739.411 223.725 739.661 223.725C741.661 223.725 743.636 222.55 745.586 220.2C746.636 218.9 748.511 215.625 751.211 210.375C751.311 210.125 751.486 210 751.736 210C752.186 209.95 752.411 210.125 752.411 210.525C752.411 210.625 752.286 210.925 752.036 211.425C751.836 211.875 751.636 212.35 751.436 212.85C751.236 213.3 750.911 213.975 750.461 214.875C750.011 215.775 749.611 216.5 749.261 217.05C748.961 217.6 748.561 218.275 748.061 219.075C747.561 219.875 747.061 220.5 746.561 220.95L744.986 222.6C744.136 223.45 743.136 224.05 741.986 224.4C740.136 225 738.336 225.05 736.586 224.55C735.436 225.05 734.411 225.3 733.511 225.3C729.961 225.3 727.811 223.9 727.061 221.1C726.911 220.45 726.836 219.675 726.836 218.775C726.836 217.825 727.136 216.925 727.736 216.075C728.386 215.225 729.061 214.775 729.761 214.725C732.311 209.875 734.486 205.5 736.286 201.6C738.286 197.35 740.611 195.225 743.261 195.225C743.961 195.225 744.636 195.4 745.286 195.75C745.986 196.05 746.236 196.4 746.036 196.8C745.886 197.2 745.536 197.275 744.986 197.025C744.436 196.775 743.961 196.65 743.561 196.65C743.161 196.65 742.811 196.725 742.511 196.875C740.811 197.675 739.961 199.4 739.961 202.05C739.961 203.45 740.161 204.6 740.561 205.5C740.961 206.4 741.411 207.375 741.911 208.425C743.061 211.025 743.636 213.15 743.636 214.8C743.636 216.45 743.111 218.075 742.061 219.675C741.011 221.275 739.761 222.575 738.311 223.575ZM735.761 223.05C737.961 221.35 739.061 218.6 739.061 214.8C739.061 213.25 738.886 211.125 738.536 208.425C738.186 205.725 738.011 203.9 738.011 202.95C738.011 202 738.036 201.35 738.086 201C734.286 208.6 731.936 213.225 731.036 214.875C732.086 214.875 732.611 215.625 732.611 217.125C732.611 220.075 733.661 222.05 735.761 223.05ZM730.136 221.025C730.136 221.325 730.161 221.65 730.211 222C730.611 223.35 731.536 224.025 732.986 224.025C733.586 224.025 734.086 223.925 734.486 223.725C732.636 222.575 731.636 220.7 731.486 218.1C730.586 219 730.136 219.975 730.136 221.025ZM763.501 223.575C764.151 223.675 764.601 223.725 764.851 223.725C766.851 223.725 768.826 222.55 770.776 220.2C771.826 218.9 773.701 215.625 776.401 210.375C776.501 210.125 776.676 210 776.926 210C777.376 209.95 777.601 210.125 777.601 210.525C777.601 210.625 777.476 210.925 777.226 211.425C777.026 211.875 776.826 212.35 776.626 212.85C776.426 213.3 776.101 213.975 775.651 214.875C775.201 215.775 774.801 216.5 774.451 217.05C774.151 217.6 773.751 218.275 773.251 219.075C772.751 219.875 772.251 220.5 771.751 220.95L770.176 222.6C769.326 223.45 768.326 224.05 767.176 224.4C765.326 225 763.526 225.05 761.776 224.55C760.626 225.05 759.601 225.3 758.701 225.3C755.151 225.3 753.001 223.9 752.251 221.1C752.101 220.45 752.026 219.675 752.026 218.775C752.026 217.825 752.326 216.925 752.926 216.075C753.576 215.225 754.251 214.775 754.951 214.725C757.501 209.875 759.676 205.5 761.476 201.6C763.476 197.35 765.801 195.225 768.451 195.225C769.151 195.225 769.826 195.4 770.476 195.75C771.176 196.05 771.426 196.4 771.226 196.8C771.076 197.2 770.726 197.275 770.176 197.025C769.626 196.775 769.151 196.65 768.751 196.65C768.351 196.65 768.001 196.725 767.701 196.875C766.001 197.675 765.151 199.4 765.151 202.05C765.151 203.45 765.351 204.6 765.751 205.5C766.151 206.4 766.601 207.375 767.101 208.425C768.251 211.025 768.826 213.15 768.826 214.8C768.826 216.45 768.301 218.075 767.251 219.675C766.201 221.275 764.951 222.575 763.501 223.575ZM760.951 223.05C763.151 221.35 764.251 218.6 764.251 214.8C764.251 213.25 764.076 211.125 763.726 208.425C763.376 205.725 763.201 203.9 763.201 202.95C763.201 202 763.226 201.35 763.276 201C759.476 208.6 757.126 213.225 756.226 214.875C757.276 214.875 757.801 215.625 757.801 217.125C757.801 220.075 758.851 222.05 760.951 223.05ZM755.326 221.025C755.326 221.325 755.351 221.65 755.401 222C755.801 223.35 756.726 224.025 758.176 224.025C758.776 224.025 759.276 223.925 759.676 223.725C757.826 222.575 756.826 220.7 756.676 218.1C755.776 219 755.326 219.975 755.326 221.025ZM795.89 198.75C799.54 198.75 801.365 201.05 801.365 205.65C801.365 207.75 800.815 210 799.715 212.4C798.315 215.65 796.215 218.6 793.415 221.25C794.065 222.5 795.24 223.125 796.94 223.125C798.29 223.125 799.565 222.45 800.765 221.1C802.265 219.55 803.34 218.2 803.99 217.05C804.64 215.85 805.115 214.975 805.415 214.425C805.715 213.875 806.09 213.1 806.54 212.1C807.04 211.05 807.34 210.425 807.44 210.225C807.54 209.975 807.715 209.85 807.965 209.85C808.465 209.8 808.715 209.975 808.715 210.375C808.715 210.525 808.665 210.7 808.565 210.9L808.115 211.95C807.815 212.65 807.59 213.15 807.44 213.45C807.29 213.75 807.015 214.3 806.615 215.1C806.265 215.85 805.94 216.45 805.64 216.9C805.39 217.35 805.015 217.95 804.515 218.7C804.065 219.45 803.64 220.05 803.24 220.5C802.89 220.95 802.44 221.45 801.89 222C801.34 222.55 800.815 222.975 800.315 223.275C799.065 224.025 797.89 224.4 796.79 224.4C794.74 224.4 793.14 223.75 791.99 222.45C789.69 224.15 787.565 225 785.615 225C781.965 225 780.14 222.7 780.14 218.1C780.14 216 780.69 213.75 781.79 211.35C783.29 207.85 785.39 204.875 788.09 202.425C790.84 199.975 793.44 198.75 795.89 198.75ZM796.715 201.075C795.365 201.075 793.765 201.975 791.915 203.775C790.065 205.575 788.415 208.025 786.965 211.125C785.215 214.725 784.34 217.675 784.34 219.975C784.34 222.275 785.215 223.425 786.965 223.425C788.215 223.425 789.615 222.75 791.165 221.4C790.365 220.25 789.965 219.025 789.965 217.725C790.065 215.575 790.94 214.5 792.59 214.5C793.24 214.5 793.765 214.725 794.165 215.175C794.615 215.625 794.84 216.05 794.84 216.45C794.84 216.8 794.79 217.175 794.69 217.575C795.54 216.325 796.515 214.55 797.615 212.25C798.865 209.7 799.49 207.2 799.49 204.75C799.49 202.3 798.565 201.075 796.715 201.075ZM823.487 194.925C823.487 197.175 822.062 199.3 819.212 201.3C820.212 201.35 821.537 201.375 823.187 201.375C824.887 201.375 827.012 201.25 829.562 201C829.662 201.15 829.712 201.55 829.712 202.2C829.712 202.85 829.412 203.825 828.812 205.125C828.212 206.375 827.662 207.475 827.162 208.425C826.712 209.325 826.262 210.2 825.812 211.05C825.412 211.85 824.937 212.85 824.387 214.05C823.887 215.25 823.462 216.35 823.112 217.35C821.862 221.15 822.062 223.05 823.712 223.05C825.812 223.05 828.912 218.875 833.012 210.525C833.362 209.875 833.637 209.625 833.837 209.775C834.087 209.925 834.212 210.125 834.212 210.375C834.212 210.575 833.887 211.35 833.237 212.7C832.587 214 831.887 215.35 831.137 216.75C830.387 218.15 829.212 219.775 827.612 221.625C825.712 223.925 823.887 225.075 822.137 225.075C820.187 225.075 818.837 223.9 818.087 221.55C817.937 221.1 817.862 220.425 817.862 219.525C817.862 218.625 818.137 217.425 818.687 215.925C819.287 214.425 820.212 212.6 821.462 210.45C822.712 208.3 823.412 207.05 823.562 206.7C823.712 206.3 823.787 205.925 823.787 205.575C823.787 204.025 821.787 203.2 817.787 203.1L816.887 205.5C813.737 213.75 810.712 219.275 807.812 222.075C807.312 222.525 807.062 222.375 807.062 221.625C807.062 221.475 807.112 221.3 807.212 221.1C810.012 217.4 812.437 213.025 814.487 207.975C816.537 202.925 817.962 198.125 818.762 193.575C819.062 192.025 819.762 191.25 820.862 191.25C821.962 191.25 822.762 191.95 823.262 193.35C823.412 193.8 823.487 194.325 823.487 194.925ZM849.12 195.825C848.42 196.425 847.645 196.725 846.795 196.725C845.945 196.725 845.27 196.425 844.77 195.825C844.27 195.225 844.07 194.5 844.17 193.65C844.32 192.8 844.745 192.075 845.445 191.475C846.145 190.875 846.92 190.575 847.77 190.575C848.62 190.575 849.295 190.875 849.795 191.475C850.345 192.075 850.545 192.8 850.395 193.65C850.245 194.5 849.82 195.225 849.12 195.825ZM841.77 223.35C842.72 223.35 843.72 222.875 844.77 221.925C846.62 220.075 848.97 216.3 851.82 210.6C852.17 209.85 852.52 209.625 852.87 209.925C852.97 210.025 853.02 210.2 853.02 210.45C853.02 210.65 852.82 211.2 852.42 212.1C852.02 212.95 851.645 213.725 851.295 214.425C850.995 215.125 850.37 216.275 849.42 217.875C848.52 219.425 847.695 220.625 846.945 221.475C844.895 223.825 842.945 225 841.095 225C839.295 225 837.995 224.45 837.195 223.35C836.395 222.25 835.995 221.025 835.995 219.675C835.995 218.325 836.32 216.85 836.97 215.25L841.77 203.025C841.87 202.725 841.92 202.325 841.92 201.825C841.92 201.325 841.62 200.675 841.02 199.875L845.145 199.8C846.295 199.8 846.97 200.025 847.17 200.475C847.37 200.875 847.22 201.525 846.72 202.425L840.72 216.45C839.87 218.3 839.445 219.875 839.445 221.175C839.445 222.625 840.22 223.35 841.77 223.35ZM861.182 213.45C860.482 215.15 860.132 217.05 860.132 219.15C860.132 220.55 860.432 221.675 861.032 222.525C861.682 223.325 862.582 223.725 863.732 223.725C868.282 223.725 872.407 219.45 876.107 210.9C876.457 210.1 876.882 209.75 877.382 209.85C877.582 209.9 877.682 210.025 877.682 210.225C877.682 210.425 877.107 211.75 875.957 214.2C874.857 216.6 873.732 218.55 872.582 220.05C870.032 223.55 866.882 225.3 863.132 225.3C861.132 225.3 859.432 224.65 858.032 223.35C856.632 222.05 855.932 220.275 855.932 218.025C855.932 215.775 856.457 213.4 857.507 210.9C858.607 208.35 860.082 206 861.932 203.85C863.782 201.65 865.907 200.05 868.307 199.05C869.457 198.55 870.557 198.3 871.607 198.3C872.657 198.3 873.632 198.6 874.532 199.2C875.382 199.9 875.807 200.675 875.807 201.525C875.807 204.525 874.007 207.4 870.407 210.15C869.307 211 867.757 211.775 865.757 212.475C863.757 213.125 862.232 213.45 861.182 213.45ZM873.782 201.45C873.782 200.45 873.382 199.95 872.582 199.95C871.182 199.95 869.057 201.675 866.207 205.125C864.507 207.225 863.007 209.575 861.707 212.175C862.557 212.175 863.782 211.875 865.382 211.275C867.032 210.675 868.457 209.875 869.657 208.875C872.407 206.525 873.782 204.05 873.782 201.45ZM888.789 223.575C889.439 223.675 889.889 223.725 890.139 223.725C892.139 223.725 894.114 222.55 896.064 220.2C897.114 218.9 898.989 215.625 901.689 210.375C901.789 210.125 901.964 210 902.214 210C902.664 209.95 902.889 210.125 902.889 210.525C902.889 210.625 902.764 210.925 902.514 211.425C902.314 211.875 902.114 212.35 901.914 212.85C901.714 213.3 901.389 213.975 900.939 214.875C900.489 215.775 900.089 216.5 899.739 217.05C899.439 217.6 899.039 218.275 898.539 219.075C898.039 219.875 897.539 220.5 897.039 220.95L895.464 222.6C894.614 223.45 893.614 224.05 892.464 224.4C890.614 225 888.814 225.05 887.064 224.55C885.914 225.05 884.889 225.3 883.989 225.3C880.439 225.3 878.289 223.9 877.539 221.1C877.389 220.45 877.314 219.675 877.314 218.775C877.314 217.825 877.614 216.925 878.214 216.075C878.864 215.225 879.539 214.775 880.239 214.725C882.789 209.875 884.964 205.5 886.764 201.6C888.764 197.35 891.089 195.225 893.739 195.225C894.439 195.225 895.114 195.4 895.764 195.75C896.464 196.05 896.714 196.4 896.514 196.8C896.364 197.2 896.014 197.275 895.464 197.025C894.914 196.775 894.439 196.65 894.039 196.65C893.639 196.65 893.289 196.725 892.989 196.875C891.289 197.675 890.439 199.4 890.439 202.05C890.439 203.45 890.639 204.6 891.039 205.5C891.439 206.4 891.889 207.375 892.389 208.425C893.539 211.025 894.114 213.15 894.114 214.8C894.114 216.45 893.589 218.075 892.539 219.675C891.489 221.275 890.239 222.575 888.789 223.575ZM886.239 223.05C888.439 221.35 889.539 218.6 889.539 214.8C889.539 213.25 889.364 211.125 889.014 208.425C888.664 205.725 888.489 203.9 888.489 202.95C888.489 202 888.514 201.35 888.564 201C884.764 208.6 882.414 213.225 881.514 214.875C882.564 214.875 883.089 215.625 883.089 217.125C883.089 220.075 884.139 222.05 886.239 223.05ZM880.614 221.025C880.614 221.325 880.639 221.65 880.689 222C881.089 223.35 882.014 224.025 883.464 224.025C884.064 224.025 884.564 223.925 884.964 223.725C883.114 222.575 882.114 220.7 881.964 218.1C881.064 219 880.614 219.975 880.614 221.025Z" fill="#127681"/>
</svg>
