<svg width="235" height="66" viewBox="0 0 940 267" fill="none" xmlns="http://www.w3.org/2000/svg">
<path d="M82.96 3.73916L200.771 3.29721C212.273 3.25406 222.787 9.79096 227.837 20.1251L274.336 115.276C278.223 123.229 278.399 132.492 274.817 140.587L228.425 245.437C223.637 256.258 212.936 263.253 201.103 263.298L84.7453 263.734C73.1667 263.778 62.5968 257.154 57.5867 246.716L6.94822 141.21C2.86584 132.704 3.02256 122.773 7.37134 114.401L56.4495 19.9109C61.5919 10.0103 71.8036 3.78101 82.96 3.73916Z" fill="white" stroke="#127681" stroke-width="5"/>
<path d="M202.98 225H75.8161C72.7829 225 70.4484 222.321 70.863 219.316L86.962 102.65C87.3034 100.176 89.4177 98.3333 91.9151 98.3333H188.031C190.547 98.3333 192.671 100.203 192.99 102.698L207.939 219.364C208.322 222.354 205.994 225 202.98 225Z" fill="#127681" stroke="#127681"/>
<path d="M109.764 97.667C109.764 41 171.496 41 171.496 97.667" stroke="#127681" stroke-width="5"/>
<ellipse cx="115.433" cy="125" rx="6.29921" ry="6.66666" fill="white"/>
<ellipse cx="165.827" cy="125" rx="6.29921" ry="6.66666" fill="white"/>
<path d="M72.5984 78.3333L75.4269 87.5464H84.5802L77.1751 93.2404L80.0036 102.454L72.5984 96.7595L65.1933 102.454L68.0218 93.2404L60.6166 87.5464H69.7699L72.5984 78.3333Z" fill="#127681"/>
<path d="M194.803 51.6667L197.632 60.8798H206.785L199.38 66.5738L202.208 75.7869L194.803 70.0929L187.398 75.7869L190.226 66.5738L182.821 60.8798H191.975L194.803 51.6667Z" fill="#127681"/>
<path d="M213.701 78.3333L216.529 87.5464H225.683L218.277 93.2404L221.106 102.454L213.701 96.7595L206.296 102.454L209.124 93.2404L201.719 87.5464H210.872L213.701 78.3333Z" fill="#127681"/>
<path d="M163.307 25L166.136 34.2131H175.289L167.884 39.9071L170.712 49.1202L163.307 43.4262L155.902 49.1202L158.73 39.9071L151.325 34.2131H160.479L163.307 25Z" fill="#127681"/>
<path d="M121.732 25L124.561 34.2131H133.714L126.309 39.9071L129.138 49.1202L121.732 43.4262L114.327 49.1202L117.156 39.9071L109.751 34.2131H118.904L121.732 25Z" fill="#127681"/>
<path d="M91.496 51.6667L94.3245 60.8798H103.478L96.0727 66.5738L98.9012 75.7869L91.496 70.0929L84.0908 75.7869L86.9194 66.5738L79.5142 60.8798H88.6675L91.496 51.6667Z" fill="#127681"/>
<path d="M303.318 202.276L305.052 200.323H307.64L310.716 184.771C307.379 184.771 304.669 185.675 302.586 187.481C300.519 189.272 299.485 191.616 299.485 194.513L299.51 195.05L294.749 197.345C295.172 192.348 297.109 188.686 300.56 186.358C304.026 184.031 309.251 182.867 316.233 182.867H330.32L328.123 189.776H326.561C326.772 189.125 326.878 188.482 326.878 187.848C326.878 185.732 323.549 184.674 316.893 184.674H315.843L312.742 200.323H323.387L320.97 202.813C318.366 202.455 315.892 202.276 313.548 202.276H312.352L310.936 209.43C309.747 215.452 307.444 220.261 304.026 223.858C300.625 227.455 296.661 229.254 292.137 229.254C289.695 229.254 287.514 228.334 285.594 226.495L289.183 222.833C290.468 225.502 292.535 226.837 295.384 226.837C297.988 226.837 300.031 225.657 301.512 223.297C303.009 220.953 304.352 216.795 305.54 210.821L307.249 202.276H303.318ZM347.923 205.743H347.483C345.644 209.828 343.431 213.165 340.843 215.753C338.255 218.325 335.83 219.61 333.567 219.61C330.133 219.61 328.416 217.462 328.416 213.165C328.416 208.429 330.304 203.79 334.08 199.249C337.986 194.545 342.755 192.193 348.387 192.193C350.714 192.193 353.147 192.291 355.687 192.486L353.929 199.713L351.561 211.773C351.186 213.661 350.999 214.882 350.999 215.436C350.999 216.461 351.479 216.974 352.439 216.974C354.067 216.974 356.492 215.183 359.715 211.603L359.275 213.873C355.711 217.698 352.513 219.61 349.681 219.61C347.321 219.61 346.141 218.382 346.141 215.924C346.141 215.11 346.336 213.727 346.727 211.773L347.923 205.743ZM349.876 195.978C347.825 195.066 345.799 194.61 343.797 194.61C340.835 194.61 338.466 196.482 336.692 200.226C334.609 204.653 333.567 208.632 333.567 212.164C333.567 214.719 334.316 215.997 335.813 215.997C337.213 215.997 339.223 214.532 341.844 211.603C344.48 208.657 346.792 205.296 348.777 201.52L349.876 195.978ZM359.031 218.17L362.229 214.874C364.345 216.42 366.502 217.193 368.699 217.193C370.05 217.193 371.189 216.843 372.117 216.144C373.045 215.427 373.509 214.549 373.509 213.507C373.509 212.351 372.589 210.772 370.75 208.771L368.528 206.329C366.364 203.953 365.281 201.967 365.281 200.372C365.281 198.159 366.331 196.197 368.431 194.488C370.53 192.763 372.931 191.9 375.633 191.9C377.114 191.9 378.774 192.21 380.613 192.828L379.539 198.224H378.001L378.074 197.809C378.107 197.662 378.123 197.491 378.123 197.296C378.123 195.099 376.707 194 373.875 194C370.701 194 369.114 195.27 369.114 197.809C369.114 199.094 370.058 200.803 371.946 202.936L373.948 205.157C376.129 207.615 377.22 209.633 377.22 211.212C377.22 213.393 376.064 215.338 373.753 217.047C371.442 218.756 368.813 219.61 365.867 219.61C363.8 219.61 361.521 219.13 359.031 218.17ZM384.129 219.293L385.936 211.773L389.28 194.903C390.452 189.011 392.658 184.43 395.896 181.158C399.152 177.87 403.107 176.227 407.762 176.227C409.373 176.227 410.838 176.397 412.156 176.739L408.812 180.23C406.907 179.368 405.28 178.937 403.929 178.937C401.341 178.937 399.396 179.881 398.094 181.769C396.792 183.64 395.62 187.213 394.578 192.486L391.941 205.743H392.332C394.35 201.576 396.645 198.232 399.217 195.709C401.788 193.17 404.173 191.9 406.37 191.9C409.056 191.9 410.398 193.382 410.398 196.344C410.398 197.32 410.26 198.492 409.983 199.859L407.615 211.773C407.241 213.645 407.054 214.866 407.054 215.436C407.054 216.461 407.534 216.974 408.494 216.974C410.122 216.974 412.547 215.183 415.77 211.603L415.33 213.873C411.766 217.698 408.567 219.61 405.735 219.61C403.392 219.61 402.22 218.382 402.22 215.924C402.22 215.11 402.407 213.727 402.781 211.773L405.174 199.811C405.353 198.883 405.442 198.102 405.442 197.467C405.442 196.148 404.954 195.489 403.978 195.489C400.885 195.489 396.572 200.421 391.038 210.284L389.28 219L384.129 219.293ZM434.739 211.603L434.3 213.873C430.735 217.698 427.537 219.61 424.705 219.61C422.361 219.61 421.189 218.382 421.189 215.924C421.189 215.094 421.377 213.727 421.751 211.822L423.436 203.326C423.891 200.917 424.119 199.314 424.119 198.517C424.119 197.149 423.59 196.466 422.532 196.466C421.8 196.466 420.49 196.751 418.602 197.32L418.895 195.807L430.833 191.9L428.978 199.713L426.585 211.773C426.211 213.661 426.023 214.866 426.023 215.387C426.023 216.445 426.504 216.974 427.464 216.974C429.075 216.974 431.5 215.183 434.739 211.603ZM425.779 187.652L427.415 184.332L434.3 179.84L432.2 184.332L425.779 187.652ZM444.334 219.61C442.202 219.61 440.42 218.78 438.987 217.12C437.571 215.444 436.863 213.36 436.863 210.87C436.863 206.183 438.637 201.853 442.186 197.882C445.734 193.894 449.599 191.9 453.782 191.9C456.045 191.9 457.908 192.714 459.373 194.342C460.838 195.969 461.57 198.045 461.57 200.567C461.57 205.434 459.796 209.828 456.248 213.751C452.7 217.657 448.729 219.61 444.334 219.61ZM447.117 217.486C449.526 217.486 451.642 215.94 453.465 212.848C455.304 209.739 456.224 206.134 456.224 202.032C456.224 196.645 454.58 193.951 451.292 193.951C448.965 193.951 446.865 195.554 444.993 198.761C443.138 201.951 442.21 205.548 442.21 209.552C442.21 214.841 443.846 217.486 447.117 217.486ZM467.674 219.293L469.48 211.773L471.873 199.713C472.247 197.841 472.435 196.62 472.435 196.051C472.435 195.042 471.954 194.537 470.994 194.537C469.399 194.537 466.974 196.319 463.719 199.884L464.158 197.638C467.706 193.813 470.905 191.9 473.753 191.9C476.097 191.9 477.269 193.121 477.269 195.562C477.269 196.393 477.081 197.776 476.707 199.713L475.511 205.743H475.877C477.911 201.576 480.206 198.232 482.762 195.709C485.333 193.17 487.726 191.9 489.939 191.9C492.609 191.9 493.943 193.382 493.943 196.344C493.943 197.304 493.805 198.476 493.528 199.859L491.16 211.773C490.786 213.661 490.599 214.882 490.599 215.436C490.599 216.461 491.079 216.974 492.039 216.974C493.667 216.974 496.1 215.183 499.339 211.603L498.875 213.873C495.327 217.698 492.129 219.61 489.28 219.61C486.937 219.61 485.765 218.382 485.765 215.924C485.765 215.11 485.96 213.727 486.351 211.773L488.719 199.811C488.914 198.883 489.012 198.102 489.012 197.467C489.012 196.148 488.523 195.489 487.547 195.489C484.438 195.489 480.125 200.421 474.607 210.284L472.825 219L467.674 219.293ZM537.278 205.743H536.839C535 209.828 532.786 213.165 530.198 215.753C527.61 218.325 525.185 219.61 522.923 219.61C519.489 219.61 517.771 217.462 517.771 213.165C517.771 208.429 519.66 203.79 523.436 199.249C527.342 194.545 532.111 192.193 537.742 192.193C540.07 192.193 542.503 192.291 545.042 192.486L543.284 199.713L540.916 211.773C540.542 213.661 540.354 214.882 540.354 215.436C540.354 216.461 540.835 216.974 541.795 216.974C543.423 216.974 545.848 215.183 549.07 211.603L548.631 213.873C545.066 217.698 541.868 219.61 539.036 219.61C536.676 219.61 535.496 218.382 535.496 215.924C535.496 215.11 535.691 213.727 536.082 211.773L537.278 205.743ZM539.231 195.978C537.181 195.066 535.154 194.61 533.152 194.61C530.19 194.61 527.822 196.482 526.048 200.226C523.965 204.653 522.923 208.632 522.923 212.164C522.923 214.719 523.672 215.997 525.169 215.997C526.569 215.997 528.579 214.532 531.199 211.603C533.836 208.657 536.147 205.296 538.133 201.52L539.231 195.978ZM553.27 219.293L555.076 211.773L557.469 199.713C557.843 197.841 558.03 196.62 558.03 196.051C558.03 195.042 557.55 194.537 556.59 194.537C554.995 194.537 552.57 196.319 549.314 199.884L549.754 197.638C553.302 193.813 556.5 191.9 559.349 191.9C561.692 191.9 562.864 193.121 562.864 195.562C562.864 196.393 562.677 197.776 562.303 199.713L561.106 205.743H561.473C563.507 201.576 565.802 198.232 568.357 195.709C570.929 193.17 573.322 191.9 575.535 191.9C578.204 191.9 579.539 193.382 579.539 196.344C579.539 197.304 579.401 198.476 579.124 199.859L576.756 211.773C576.382 213.661 576.194 214.882 576.194 215.436C576.194 216.461 576.674 216.974 577.635 216.974C579.262 216.974 581.696 215.183 584.935 211.603L584.471 213.873C580.923 217.698 577.724 219.61 574.876 219.61C572.532 219.61 571.36 218.382 571.36 215.924C571.36 215.11 571.556 213.727 571.946 211.773L574.314 199.811C574.51 198.883 574.607 198.102 574.607 197.467C574.607 196.148 574.119 195.489 573.143 195.489C570.034 195.489 565.721 200.421 560.203 210.284L558.421 219L553.27 219.293ZM606.272 205.743H605.833C603.961 209.845 601.74 213.181 599.168 215.753C596.596 218.325 594.188 219.61 591.941 219.61C588.491 219.61 586.766 217.454 586.766 213.141C586.766 210.211 587.604 207.143 589.28 203.937C590.973 200.73 593.154 198.036 595.823 195.855C597.614 194.407 599.404 193.438 601.194 192.95C602.985 192.446 605.581 192.193 608.982 192.193C609.943 188.971 610.944 186.513 611.985 184.82C613.027 183.111 614.492 181.516 616.38 180.035C619.603 177.496 623.159 176.227 627.049 176.227C628.66 176.227 630.125 176.397 631.443 176.739L628.099 180.206C626.162 179.36 624.518 178.937 623.167 178.937C620.563 178.937 618.602 179.889 617.283 181.793C615.965 183.681 614.785 187.229 613.743 192.438L609.91 211.773C609.52 213.661 609.324 214.866 609.324 215.387C609.324 216.445 609.804 216.974 610.765 216.974C612.392 216.974 614.826 215.183 618.064 211.603L617.601 213.873C614.052 217.698 610.862 219.61 608.03 219.61C605.67 219.61 604.49 218.382 604.49 215.924C604.49 215.126 604.686 213.743 605.076 211.773L606.272 205.743ZM608.226 195.978C606.207 195.066 604.173 194.61 602.122 194.61C599.176 194.61 596.816 196.482 595.042 200.226C592.942 204.653 591.893 208.632 591.893 212.164C591.893 214.719 592.649 215.997 594.163 215.997C595.563 215.997 597.573 214.524 600.193 211.578C602.83 208.632 605.141 205.271 607.127 201.495L608.226 195.978ZM656.272 205.743H655.833C653.994 209.828 651.78 213.165 649.192 215.753C646.604 218.325 644.179 219.61 641.917 219.61C638.483 219.61 636.766 217.462 636.766 213.165C636.766 208.429 638.654 203.79 642.43 199.249C646.336 194.545 651.105 192.193 656.736 192.193C659.064 192.193 661.497 192.291 664.036 192.486L662.278 199.713L659.91 211.773C659.536 213.661 659.349 214.882 659.349 215.436C659.349 216.461 659.829 216.974 660.789 216.974C662.417 216.974 664.842 215.183 668.064 211.603L667.625 213.873C664.061 217.698 660.862 219.61 658.03 219.61C655.67 219.61 654.49 218.382 654.49 215.924C654.49 215.11 654.686 213.727 655.076 211.773L656.272 205.743ZM658.226 195.978C656.175 195.066 654.148 194.61 652.146 194.61C649.184 194.61 646.816 196.482 645.042 200.226C642.959 204.653 641.917 208.632 641.917 212.164C641.917 214.719 642.666 215.997 644.163 215.997C645.563 215.997 647.573 214.532 650.193 211.603C652.83 208.657 655.141 205.296 657.127 201.52L658.226 195.978ZM691.941 212.286L691.575 214.19C686.237 217.804 681.858 219.61 678.44 219.61C676.08 219.61 674.184 218.813 672.752 217.218C671.32 215.623 670.604 213.515 670.604 210.895C670.604 206.158 672.394 201.812 675.975 197.857C679.555 193.886 683.494 191.9 687.791 191.9C689.679 191.9 691.559 192.315 693.431 193.146L691.795 199.42H690.281L690.354 199.054C690.517 198.289 690.599 197.727 690.599 197.369C690.599 195.123 689.077 194 686.033 194C683.169 194 680.784 195.53 678.88 198.59C676.976 201.65 676.023 205.491 676.023 210.113C676.023 214.524 677.667 216.729 680.955 216.729C684.08 216.729 687.742 215.248 691.941 212.286ZM719.285 212.286L718.919 214.19C713.58 217.804 709.202 219.61 705.784 219.61C703.424 219.61 701.528 218.813 700.096 217.218C698.663 215.623 697.947 213.515 697.947 210.895C697.947 206.158 699.738 201.812 703.318 197.857C706.899 193.886 710.838 191.9 715.135 191.9C717.023 191.9 718.903 192.315 720.774 193.146L719.139 199.42H717.625L717.698 199.054C717.861 198.289 717.942 197.727 717.942 197.369C717.942 195.123 716.421 194 713.377 194C710.512 194 708.128 195.53 706.224 198.59C704.319 201.65 703.367 205.491 703.367 210.113C703.367 214.524 705.011 216.729 708.299 216.729C711.424 216.729 715.086 215.248 719.285 212.286ZM746.678 212.335L746.312 214.215C741.136 217.812 736.725 219.61 733.079 219.61C730.768 219.61 728.888 218.805 727.439 217.193C726.007 215.566 725.291 213.466 725.291 210.895C725.291 206.305 727.049 201.992 730.564 197.955C734.08 193.902 737.832 191.876 741.819 191.876C743.268 191.876 744.44 192.364 745.335 193.341C746.23 194.317 746.678 195.587 746.678 197.149C746.678 200.274 745.083 202.96 741.893 205.206C738.702 207.452 734.894 208.575 730.467 208.575L730.442 209.674C730.442 214.426 732.184 216.803 735.667 216.803C738.678 216.803 742.348 215.313 746.678 212.335ZM730.516 207.062C734.161 206.769 737.01 205.833 739.061 204.254C741.111 202.659 742.137 200.6 742.137 198.077C742.137 195.587 741.233 194.342 739.427 194.342C737.474 194.342 735.586 195.644 733.763 198.248C731.94 200.836 730.857 203.774 730.516 207.062ZM749.168 218.17L752.366 214.874C754.482 216.42 756.639 217.193 758.836 217.193C760.187 217.193 761.326 216.843 762.254 216.144C763.182 215.427 763.646 214.549 763.646 213.507C763.646 212.351 762.726 210.772 760.887 208.771L758.665 206.329C756.5 203.953 755.418 201.967 755.418 200.372C755.418 198.159 756.468 196.197 758.567 194.488C760.667 192.763 763.068 191.9 765.77 191.9C767.251 191.9 768.911 192.21 770.75 192.828L769.676 198.224H768.138L768.211 197.809C768.243 197.662 768.26 197.491 768.26 197.296C768.26 195.099 766.844 194 764.012 194C760.838 194 759.251 195.27 759.251 197.809C759.251 199.094 760.195 200.803 762.083 202.936L764.085 205.157C766.266 207.615 767.356 209.633 767.356 211.212C767.356 213.393 766.201 215.338 763.89 217.047C761.578 218.756 758.95 219.61 756.004 219.61C753.937 219.61 751.658 219.13 749.168 218.17ZM771.727 218.17L774.925 214.874C777.041 216.42 779.197 217.193 781.395 217.193C782.745 217.193 783.885 216.843 784.812 216.144C785.74 215.427 786.204 214.549 786.204 213.507C786.204 212.351 785.285 210.772 783.445 208.771L781.224 206.329C779.059 203.953 777.977 201.967 777.977 200.372C777.977 198.159 779.026 196.197 781.126 194.488C783.226 192.763 785.626 191.9 788.328 191.9C789.809 191.9 791.469 192.21 793.309 192.828L792.234 198.224H790.696L790.77 197.809C790.802 197.662 790.818 197.491 790.818 197.296C790.818 195.099 789.402 194 786.57 194C783.396 194 781.81 195.27 781.81 197.809C781.81 199.094 782.754 200.803 784.642 202.936L786.644 205.157C788.825 207.615 789.915 209.633 789.915 211.212C789.915 213.393 788.759 215.338 786.448 217.047C784.137 218.756 781.508 219.61 778.562 219.61C776.495 219.61 774.217 219.13 771.727 218.17ZM804.979 219.61C802.846 219.61 801.064 218.78 799.632 217.12C798.216 215.444 797.508 213.36 797.508 210.87C797.508 206.183 799.282 201.853 802.83 197.882C806.378 193.894 810.244 191.9 814.427 191.9C816.689 191.9 818.553 192.714 820.018 194.342C821.482 195.969 822.215 198.045 822.215 200.567C822.215 205.434 820.441 209.828 816.893 213.751C813.344 217.657 809.373 219.61 804.979 219.61ZM807.762 217.486C810.171 217.486 812.286 215.94 814.109 212.848C815.949 209.739 816.868 206.134 816.868 202.032C816.868 196.645 815.224 193.951 811.937 193.951C809.609 193.951 807.509 195.554 805.638 198.761C803.782 201.951 802.854 205.548 802.854 209.552C802.854 214.841 804.49 217.486 807.762 217.486ZM828.636 219.293L830.442 211.773L832.811 199.835C833.055 198.631 833.177 197.589 833.177 196.71C833.177 195.31 832.688 194.61 831.712 194.61C829.987 194.61 827.521 196.45 824.314 200.128L824.754 197.955C828.514 193.902 831.777 191.876 834.544 191.876C836.888 191.876 838.06 193.219 838.06 195.904C838.06 197.092 837.913 198.411 837.62 199.859L836.448 205.743H836.766C838.702 201.674 840.989 198.354 843.626 195.782C846.279 193.194 848.704 191.9 850.901 191.9C852.041 191.9 853.058 192.153 853.953 192.657L850.706 197.052C849.746 196.417 848.932 196.1 848.265 196.1C845.091 196.1 840.867 200.763 835.594 210.089L833.812 219L828.636 219.293ZM871.556 211.603L871.116 213.873C867.552 217.698 864.354 219.61 861.521 219.61C859.178 219.61 858.006 218.382 858.006 215.924C858.006 215.094 858.193 213.727 858.567 211.822L860.252 203.326C860.708 200.917 860.936 199.314 860.936 198.517C860.936 197.149 860.407 196.466 859.349 196.466C858.616 196.466 857.306 196.751 855.418 197.32L855.711 195.807L867.649 191.9L865.794 199.713L863.401 211.773C863.027 213.661 862.84 214.866 862.84 215.387C862.84 216.445 863.32 216.974 864.28 216.974C865.892 216.974 868.317 215.183 871.556 211.603ZM862.596 187.652L864.231 184.332L871.116 179.84L869.017 184.332L862.596 187.652ZM895.066 212.335L894.7 214.215C889.524 217.812 885.114 219.61 881.468 219.61C879.157 219.61 877.277 218.805 875.828 217.193C874.396 215.566 873.68 213.466 873.68 210.895C873.68 206.305 875.438 201.992 878.953 197.955C882.469 193.902 886.22 191.876 890.208 191.876C891.657 191.876 892.828 192.364 893.724 193.341C894.619 194.317 895.066 195.587 895.066 197.149C895.066 200.274 893.471 202.96 890.281 205.206C887.091 207.452 883.283 208.575 878.855 208.575L878.831 209.674C878.831 214.426 880.573 216.803 884.056 216.803C887.067 216.803 890.737 215.313 895.066 212.335ZM878.904 207.062C882.55 206.769 885.398 205.833 887.449 204.254C889.5 202.659 890.525 200.6 890.525 198.077C890.525 195.587 889.622 194.342 887.815 194.342C885.862 194.342 883.974 195.644 882.151 198.248C880.328 200.836 879.246 203.774 878.904 207.062ZM897.557 218.17L900.755 214.874C902.871 216.42 905.027 217.193 907.225 217.193C908.576 217.193 909.715 216.843 910.643 216.144C911.57 215.427 912.034 214.549 912.034 213.507C912.034 212.351 911.115 210.772 909.275 208.771L907.054 206.329C904.889 203.953 903.807 201.967 903.807 200.372C903.807 198.159 904.856 196.197 906.956 194.488C909.056 192.763 911.456 191.9 914.158 191.9C915.639 191.9 917.299 192.21 919.139 192.828L918.064 198.224H916.526L916.6 197.809C916.632 197.662 916.648 197.491 916.648 197.296C916.648 195.099 915.232 194 912.4 194C909.227 194 907.64 195.27 907.64 197.809C907.64 199.094 908.584 200.803 910.472 202.936L912.474 205.157C914.655 207.615 915.745 209.633 915.745 211.212C915.745 213.393 914.59 215.338 912.278 217.047C909.967 218.756 907.339 219.61 904.393 219.61C902.326 219.61 900.047 219.13 897.557 218.17Z" fill="#127681"/>
<path d="M325.827 106.539L331.935 100.299C337.326 104.664 342.907 106.847 348.678 106.847C352.692 106.847 355.973 105.719 358.522 103.463C361.071 101.178 362.345 98.248 362.345 94.6738C362.345 91.1582 359.943 87.2764 355.138 83.0283L348.942 77.5352C344.342 73.4922 341.486 70.6504 340.373 69.0098C339.289 67.3691 338.747 65.1719 338.747 62.418C338.747 56.9395 341.061 52.2227 345.69 48.2676C350.319 44.2832 355.842 42.291 362.258 42.291C366.33 42.291 371.105 43.5068 376.584 45.9385L374.386 56.9688H371.618C371.676 56.0605 371.706 55.4307 371.706 55.0791C371.706 52.2959 370.592 50.0547 368.366 48.3555C366.139 46.6562 363.195 45.8066 359.533 45.8066C355.754 45.8066 352.575 46.9346 349.997 49.1904C347.419 51.417 346.13 54.1855 346.13 57.4961C346.13 59.7227 346.774 61.7588 348.063 63.6045C349.382 65.4502 352.106 68.1309 356.237 71.6465L361.423 76.1289C367.194 81.0801 370.08 85.709 370.08 90.0156C370.08 95.6699 367.37 100.519 361.95 104.562C356.53 108.604 350.07 110.626 342.57 110.626C336.828 110.626 331.247 109.264 325.827 106.539ZM380.627 109.527L383.879 95.9922L389.899 65.626C392.009 55.0205 395.978 46.7734 401.808 40.8848C407.668 34.9668 414.787 32.0078 423.166 32.0078C426.066 32.0078 428.703 32.3154 431.076 32.9307L425.055 39.2148C421.628 37.6621 418.698 36.8857 416.266 36.8857C411.608 36.8857 408.107 38.585 405.763 41.9834C403.42 45.3525 401.31 51.7832 399.435 61.2754L394.689 85.1377H395.392C399.025 77.6377 403.156 71.6172 407.785 67.0762C412.414 62.5059 416.706 60.2207 420.661 60.2207C425.495 60.2207 427.912 62.8867 427.912 68.2188C427.912 69.9766 427.663 72.0859 427.165 74.5469L422.902 95.9922C422.228 99.3613 421.891 101.559 421.891 102.584C421.891 104.43 422.756 105.353 424.484 105.353C427.414 105.353 431.779 102.13 437.58 95.6846L436.789 99.7715C430.373 106.656 424.616 110.099 419.518 110.099C415.3 110.099 413.19 107.887 413.19 103.463C413.19 101.998 413.527 99.5078 414.201 95.9922L418.508 74.459C418.83 72.7891 418.991 71.3828 418.991 70.2402C418.991 67.8672 418.112 66.6807 416.354 66.6807C410.788 66.6807 403.024 75.5576 393.063 93.3115L389.899 109L380.627 109.527ZM455.07 110.099C451.232 110.099 448.024 108.604 445.446 105.616C442.897 102.599 441.623 98.8486 441.623 94.3662C441.623 85.9287 444.816 78.1357 451.203 70.9873C457.59 63.8096 464.548 60.2207 472.077 60.2207C476.149 60.2207 479.504 61.6855 482.14 64.6152C484.777 67.5449 486.095 71.2803 486.095 75.8213C486.095 84.5811 482.902 92.4912 476.515 99.5518C470.129 106.583 462.98 110.099 455.07 110.099ZM460.08 106.275C464.416 106.275 468.224 103.492 471.506 97.9258C474.816 92.3301 476.471 85.8408 476.471 78.458C476.471 68.7607 473.512 63.9121 467.594 63.9121C463.405 63.9121 459.626 66.7979 456.257 72.5693C452.917 78.3115 451.247 84.7861 451.247 91.9932C451.247 101.515 454.191 106.275 460.08 106.275ZM466.584 137.477L472.516 131.192C475.505 132.657 478.61 133.39 481.833 133.39C489.303 133.39 494.269 127.208 496.73 114.845L503.498 80.7871C504.289 76.4512 504.684 73.5654 504.684 72.1299C504.684 69.6689 503.747 68.4385 501.872 68.4385C500.524 68.4385 498.151 68.9512 494.753 69.9766L495.324 67.252L516.769 60.2207L513.429 74.415L511.276 85.1377H512.023C515.363 77.7549 519.347 71.7637 523.976 67.1641C528.634 62.5352 533 60.2207 537.072 60.2207C543.312 60.2207 546.432 64.0879 546.432 71.8223C546.432 80.875 542.858 89.4443 535.71 97.5303C528.591 105.616 521.032 109.659 513.034 109.659C512.214 109.659 510.544 109.498 508.024 109.176C507.702 109.146 507.204 109.088 506.53 109C504.216 118.463 500.202 125.699 494.489 130.709C488.805 135.748 481.745 138.268 473.307 138.268C471.198 138.268 468.957 138.004 466.584 137.477ZM507.76 102.804C511.423 104.415 515.085 105.221 518.747 105.221C524.05 105.221 528.298 101.852 531.491 95.1133C535.27 87.1445 537.16 79.9814 537.16 73.624C537.16 69.0244 535.798 66.7246 533.073 66.7246C530.583 66.7246 526.979 69.376 522.262 74.6787C517.546 79.9521 513.371 86.002 509.738 92.8281L507.76 102.804ZM553.595 85.1377L555.441 78.6338H575.48L573.634 85.1377H553.595ZM576.755 104.957L582.995 98.585C585.925 103.36 590.011 105.748 595.256 105.748C603.019 105.748 608.132 99.5078 610.592 87.0273L618.371 48.0039C616.877 47.7695 615.822 47.6523 615.207 47.6523C610.549 47.6523 606.564 49.3516 603.254 52.75C599.972 56.1484 598.332 60.25 598.332 65.0547V65.6699L589.806 69.8447C590.451 61.4658 593.747 55.0645 599.694 50.6406C605.671 46.1875 613.932 43.9609 624.479 43.9609H628.39L622.15 75.4258L645.134 53.6289C653.102 46.0996 659.592 42.335 664.601 42.335C666.593 42.335 668.527 42.877 670.402 43.9609L664.338 50.4209C663.078 49.3662 661.862 48.8389 660.69 48.8389C657.292 48.8389 652.516 51.2852 646.364 56.1777C640.241 61.0703 634.938 66.666 630.456 72.9648C631.54 74.8105 634.367 79.7031 638.937 87.6426C645.441 98.9805 651.051 104.649 655.768 104.649C657.35 104.649 660.075 103.419 663.942 100.958L663.283 104.298C658.244 108.517 653.981 110.626 650.495 110.626C646.569 110.626 642.599 108.194 638.586 103.331C634.572 98.4678 629.05 89.3857 622.018 76.085L620.876 81.71C619.235 89.9717 615.558 96.7246 609.845 101.969C604.162 107.213 597.673 109.835 590.378 109.835C585.016 109.835 580.475 108.209 576.755 104.957ZM701.296 95.6846L700.505 99.7715C694.089 106.656 688.332 110.099 683.234 110.099C679.015 110.099 676.906 107.887 676.906 103.463C676.906 101.969 677.243 99.5078 677.917 96.0801L680.949 80.7871C681.769 76.4512 682.179 73.5654 682.179 72.1299C682.179 69.6689 681.227 68.4385 679.323 68.4385C678.005 68.4385 675.646 68.9512 672.248 69.9766L672.775 67.252L694.264 60.2207L690.925 74.2832L686.618 95.9922C685.944 99.3906 685.607 101.559 685.607 102.496C685.607 104.4 686.471 105.353 688.2 105.353C691.1 105.353 695.466 102.13 701.296 95.6846ZM685.168 52.5742L688.112 46.5977L700.505 38.5117L696.725 46.5977L685.168 52.5742ZM708.107 109.527L711.359 95.9922L715.666 74.2832C716.34 70.9141 716.676 68.7168 716.676 67.6914C716.676 65.875 715.812 64.9668 714.084 64.9668C711.213 64.9668 706.847 68.1748 700.988 74.5908L701.779 70.5479C708.166 63.6631 713.923 60.2207 719.05 60.2207C723.268 60.2207 725.378 62.418 725.378 66.8125C725.378 68.3066 725.041 70.7969 724.367 74.2832L722.214 85.1377H722.873C726.535 77.6377 730.666 71.6172 735.265 67.0762C739.894 62.5059 744.201 60.2207 748.185 60.2207C752.99 60.2207 755.392 62.8867 755.392 68.2188C755.392 69.9473 755.143 72.0566 754.645 74.5469L750.383 95.9922C749.709 99.3906 749.372 101.588 749.372 102.584C749.372 104.43 750.236 105.353 751.965 105.353C754.894 105.353 759.274 102.13 765.104 95.6846L764.269 99.7715C757.883 106.656 752.126 110.099 746.999 110.099C742.78 110.099 740.671 107.887 740.671 103.463C740.671 101.998 741.022 99.5078 741.725 95.9922L745.988 74.459C746.34 72.7891 746.515 71.3828 746.515 70.2402C746.515 67.8672 745.636 66.6807 743.879 66.6807C738.283 66.6807 730.519 75.5576 720.588 93.3115L717.38 109L708.107 109.527ZM773.937 108.297C770.422 106.539 768.664 103.009 768.664 97.7061C768.664 89.0342 772.179 80.6553 779.211 72.5693C786.037 64.6885 794.518 60.748 804.655 60.748C806.589 60.748 810.676 60.9238 816.916 61.2754L813.796 74.2832L811.73 84.4785C810.676 89.8398 809.958 93.7949 809.577 96.3438C807.966 106.744 806.34 113.951 804.699 117.965C803.088 122.008 800.217 125.963 796.086 129.83C790.021 135.455 783.034 138.268 775.124 138.268C769.967 138.268 765.778 137.257 762.555 135.235C759.333 133.243 757.721 130.636 757.721 127.413C757.721 120.968 763.127 114.596 773.937 108.297ZM806.413 67.6914C802.897 65.9629 799.396 65.0986 795.91 65.0986C792.013 65.0986 788.717 66.8418 786.022 70.3281C783.884 73.082 781.935 77.1543 780.177 82.5449C778.449 87.9062 777.585 92.4912 777.585 96.2998C777.585 100.431 778.888 102.496 781.496 102.496C787.267 102.496 794.928 94.1611 804.479 77.4912L806.413 67.6914ZM802.941 85.1377H802.238C799.133 92.0225 795.412 97.5596 791.076 101.749C786.74 105.938 782.184 108.399 777.409 109.132C769.733 114.435 765.895 119.356 765.895 123.897C765.895 126.827 767.316 129.317 770.158 131.368C773.029 133.448 776.501 134.488 780.573 134.488C785.817 134.488 789.948 132.438 792.966 128.336C796.012 124.264 798.18 117.818 799.469 109L802.941 85.1377Z" fill="#127681"/>
</svg>
