<svg width="120" height="100" viewBox="0 0 577 421" fill="none" xmlns="http://www.w3.org/2000/svg">
<path d="M233.655 2.73552L345.44 2.30091C357.093 2.25561 367.715 8.96163 372.684 19.5L417.544 114.637C421.198 122.386 421.363 131.329 417.999 139.21L373.229 244.075C368.527 255.09 357.724 262.255 345.748 262.302L235.395 262.731C223.668 262.776 212.991 255.984 208.064 245.344L159.195 139.82C155.356 131.529 155.504 121.94 159.598 113.771L206.944 19.2997C212.013 9.18429 222.341 2.77951 233.655 2.73552Z" fill="#45046A" stroke="#45046A" stroke-width="3"/>
<path d="M349.094 227H226.744C223.72 227 221.389 224.337 221.788 221.34L237.321 104.673C237.652 102.189 239.771 100.333 242.278 100.333H334.67C337.194 100.333 339.322 102.215 339.632 104.72L354.056 221.386C354.425 224.369 352.099 227 349.094 227Z" fill="#B5076B" stroke="#B5076B"/>
<path d="M259.326 99.667C259.326 43 318.89 43 318.89 99.667" stroke="#B5076B" stroke-width="5"/>
<ellipse cx="264.796" cy="127" rx="6.078" ry="6.66666" fill="#45046A"/>
<ellipse cx="313.42" cy="127" rx="6.07801" ry="6.66666" fill="#45046A"/>
<path d="M223.465 80.3333L226.195 89.5465H235.026L227.881 95.2405L230.61 104.454L223.465 98.7596L216.32 104.454L219.049 95.2405L211.904 89.5465H220.736L223.465 80.3333Z" fill="#B5076B"/>
<path d="M341.379 53.6667L344.108 62.8798H352.94L345.795 68.5738L348.524 77.7869L341.379 72.0929L334.234 77.7869L336.963 68.5738L329.818 62.8798H338.649L341.379 53.6667Z" fill="#B5076B"/>
<path d="M359.613 80.3333L362.342 89.5465H371.174L364.029 95.2405L366.758 104.454L359.613 98.7596L352.468 104.454L355.197 95.2405L348.052 89.5465H356.883L359.613 80.3333Z" fill="#B5076B"/>
<path d="M310.989 27L313.718 36.2131H322.55L315.405 41.9071L318.134 51.1202L310.989 45.4262L303.843 51.1202L306.573 41.9071L299.428 36.2131H308.259L310.989 27Z" fill="#B5076B"/>
<path d="M270.874 27L273.603 36.2131H282.435L275.29 41.9071L278.019 51.1202L270.874 45.4262L263.729 51.1202L266.458 41.9071L259.313 36.2131H268.145L270.874 27Z" fill="#B5076B"/>
<path d="M241.699 53.6667L244.429 62.8798H253.26L246.115 68.5738L248.845 77.7869L241.699 72.0929L234.554 77.7869L237.283 68.5738L230.138 62.8798H238.97L241.699 53.6667Z" fill="#B5076B"/>
<path d="M46.668 341.539L52.7764 335.299C58.167 339.664 63.7481 341.847 69.5196 341.847C73.5332 341.847 76.8145 340.719 79.3633 338.463C81.9121 336.178 83.1866 333.248 83.1866 329.674C83.1866 326.158 80.7842 322.276 75.9795 318.028L69.7832 312.535C65.1836 308.492 62.3272 305.65 61.2139 304.01C60.1299 302.369 59.5879 300.172 59.5879 297.418C59.5879 291.939 61.9024 287.223 66.5313 283.268C71.1602 279.283 76.6826 277.291 83.0987 277.291C87.1709 277.291 91.9463 278.507 97.4248 280.938L95.2276 291.969H92.459C92.5176 291.061 92.5469 290.431 92.5469 290.079C92.5469 287.296 91.4336 285.055 89.2071 283.355C86.9805 281.656 84.0362 280.807 80.3741 280.807C76.5948 280.807 73.416 281.935 70.8379 284.19C68.2598 286.417 66.9707 289.186 66.9707 292.496C66.9707 294.723 67.6153 296.759 68.9043 298.604C70.2227 300.45 72.9473 303.131 77.0782 306.646L82.2637 311.129C88.0352 316.08 90.9209 320.709 90.9209 325.016C90.9209 330.67 88.211 335.519 82.791 339.562C77.3711 343.604 70.9112 345.626 63.4112 345.626C57.669 345.626 52.0879 344.264 46.668 341.539ZM101.468 344.527L104.72 330.992L110.74 300.626C112.85 290.021 116.819 281.773 122.649 275.885C128.509 269.967 135.628 267.008 144.007 267.008C146.907 267.008 149.544 267.315 151.917 267.931L145.897 274.215C142.469 272.662 139.539 271.886 137.107 271.886C132.449 271.886 128.948 273.585 126.605 276.983C124.261 280.353 122.151 286.783 120.276 296.275L115.53 320.138H116.233C119.866 312.638 123.997 306.617 128.626 302.076C133.255 297.506 137.547 295.221 141.502 295.221C146.336 295.221 148.753 297.887 148.753 303.219C148.753 304.977 148.504 307.086 148.006 309.547L143.743 330.992C143.069 334.361 142.732 336.559 142.732 337.584C142.732 339.43 143.597 340.353 145.325 340.353C148.255 340.353 152.62 337.13 158.421 330.685L157.63 334.771C151.214 341.656 145.457 345.099 140.359 345.099C136.141 345.099 134.031 342.887 134.031 338.463C134.031 336.998 134.368 334.508 135.042 330.992L139.349 309.459C139.671 307.789 139.832 306.383 139.832 305.24C139.832 302.867 138.953 301.681 137.195 301.681C131.629 301.681 123.865 310.558 113.904 328.312L110.74 344L101.468 344.527ZM175.911 345.099C172.073 345.099 168.865 343.604 166.287 340.616C163.738 337.599 162.464 333.849 162.464 329.366C162.464 320.929 165.657 313.136 172.044 305.987C178.431 298.81 185.389 295.221 192.918 295.221C196.99 295.221 200.345 296.686 202.981 299.615C205.618 302.545 206.937 306.28 206.937 310.821C206.937 319.581 203.743 327.491 197.356 334.552C190.97 341.583 183.821 345.099 175.911 345.099ZM180.921 341.275C185.257 341.275 189.065 338.492 192.347 332.926C195.657 327.33 197.313 320.841 197.313 313.458C197.313 303.761 194.354 298.912 188.436 298.912C184.246 298.912 180.467 301.798 177.098 307.569C173.758 313.312 172.088 319.786 172.088 326.993C172.088 336.515 175.032 341.275 180.921 341.275ZM187.425 372.477L193.357 366.192C196.346 367.657 199.451 368.39 202.674 368.39C210.145 368.39 215.11 362.208 217.571 349.845L224.339 315.787C225.13 311.451 225.525 308.565 225.525 307.13C225.525 304.669 224.588 303.438 222.713 303.438C221.365 303.438 218.992 303.951 215.594 304.977L216.165 302.252L237.61 295.221L234.271 309.415L232.117 320.138H232.864C236.204 312.755 240.189 306.764 244.817 302.164C249.476 297.535 253.841 295.221 257.913 295.221C264.153 295.221 267.273 299.088 267.273 306.822C267.273 315.875 263.699 324.444 256.551 332.53C249.432 340.616 241.873 344.659 233.875 344.659C233.055 344.659 231.385 344.498 228.865 344.176C228.543 344.146 228.045 344.088 227.371 344C225.057 353.463 221.043 360.699 215.33 365.709C209.647 370.748 202.586 373.268 194.148 373.268C192.039 373.268 189.798 373.004 187.425 372.477ZM228.602 337.804C232.264 339.415 235.926 340.221 239.588 340.221C244.891 340.221 249.139 336.852 252.332 330.113C256.111 322.145 258.001 314.981 258.001 308.624C258.001 304.024 256.639 301.725 253.914 301.725C251.424 301.725 247.82 304.376 243.104 309.679C238.387 314.952 234.212 321.002 230.579 327.828L228.602 337.804ZM274.437 320.138L276.282 313.634H296.321L294.476 320.138H274.437ZM297.596 339.957L303.836 333.585C306.766 338.36 310.853 340.748 316.097 340.748C323.86 340.748 328.973 334.508 331.434 322.027L339.212 283.004C337.718 282.77 336.663 282.652 336.048 282.652C331.39 282.652 327.405 284.352 324.095 287.75C320.814 291.148 319.173 295.25 319.173 300.055V300.67L310.647 304.845C311.292 296.466 314.588 290.064 320.535 285.641C326.512 281.188 334.773 278.961 345.32 278.961H349.231L342.991 310.426L365.975 288.629C373.943 281.1 380.433 277.335 385.442 277.335C387.435 277.335 389.368 277.877 391.243 278.961L385.179 285.421C383.919 284.366 382.703 283.839 381.531 283.839C378.133 283.839 373.357 286.285 367.205 291.178C361.082 296.07 355.779 301.666 351.297 307.965C352.381 309.811 355.208 314.703 359.778 322.643C366.282 333.98 371.893 339.649 376.609 339.649C378.191 339.649 380.916 338.419 384.783 335.958L384.124 339.298C379.085 343.517 374.822 345.626 371.336 345.626C367.41 345.626 363.44 343.194 359.427 338.331C355.413 333.468 349.891 324.386 342.859 311.085L341.717 316.71C340.076 324.972 336.399 331.725 330.687 336.969C325.003 342.213 318.514 344.835 311.219 344.835C305.857 344.835 301.316 343.209 297.596 339.957ZM422.137 330.685L421.346 334.771C414.93 341.656 409.173 345.099 404.075 345.099C399.856 345.099 397.747 342.887 397.747 338.463C397.747 336.969 398.084 334.508 398.758 331.08L401.79 315.787C402.61 311.451 403.021 308.565 403.021 307.13C403.021 304.669 402.068 303.438 400.164 303.438C398.846 303.438 396.487 303.951 393.089 304.977L393.616 302.252L415.105 295.221L411.766 309.283L407.459 330.992C406.785 334.391 406.448 336.559 406.448 337.496C406.448 339.4 407.313 340.353 409.041 340.353C411.941 340.353 416.307 337.13 422.137 330.685ZM406.009 287.574L408.953 281.598L421.346 273.512L417.566 281.598L406.009 287.574ZM428.948 344.527L432.2 330.992L436.507 309.283C437.181 305.914 437.518 303.717 437.518 302.691C437.518 300.875 436.653 299.967 434.925 299.967C432.054 299.967 427.689 303.175 421.829 309.591L422.62 305.548C429.007 298.663 434.764 295.221 439.891 295.221C444.109 295.221 446.219 297.418 446.219 301.812C446.219 303.307 445.882 305.797 445.208 309.283L443.055 320.138H443.714C447.376 312.638 451.507 306.617 456.106 302.076C460.735 297.506 465.042 295.221 469.026 295.221C473.831 295.221 476.233 297.887 476.233 303.219C476.233 304.947 475.984 307.057 475.486 309.547L471.224 330.992C470.55 334.391 470.213 336.588 470.213 337.584C470.213 339.43 471.077 340.353 472.806 340.353C475.735 340.353 480.115 337.13 485.945 330.685L485.11 334.771C478.724 341.656 472.967 345.099 467.84 345.099C463.621 345.099 461.512 342.887 461.512 338.463C461.512 336.998 461.863 334.508 462.566 330.992L466.829 309.459C467.181 307.789 467.356 306.383 467.356 305.24C467.356 302.867 466.478 301.681 464.72 301.681C459.124 301.681 451.36 310.558 441.429 328.312L438.221 344L428.948 344.527ZM494.778 343.297C491.263 341.539 489.505 338.009 489.505 332.706C489.505 324.034 493.021 315.655 500.052 307.569C506.878 299.688 515.359 295.748 525.496 295.748C527.43 295.748 531.517 295.924 537.757 296.275L534.637 309.283L532.571 319.479C531.517 324.84 530.799 328.795 530.418 331.344C528.807 341.744 527.181 348.951 525.54 352.965C523.929 357.008 521.058 360.963 516.927 364.83C510.862 370.455 503.875 373.268 495.965 373.268C490.809 373.268 486.619 372.257 483.397 370.235C480.174 368.243 478.563 365.636 478.563 362.413C478.563 355.968 483.968 349.596 494.778 343.297ZM527.254 302.691C523.738 300.963 520.237 300.099 516.751 300.099C512.855 300.099 509.559 301.842 506.863 305.328C504.725 308.082 502.776 312.154 501.019 317.545C499.29 322.906 498.426 327.491 498.426 331.3C498.426 335.431 499.73 337.496 502.337 337.496C508.108 337.496 515.77 329.161 525.32 312.491L527.254 302.691ZM523.782 320.138H523.079C519.974 327.022 516.253 332.56 511.917 336.749C507.581 340.938 503.025 343.399 498.25 344.132C490.574 349.435 486.736 354.356 486.736 358.897C486.736 361.827 488.157 364.317 490.999 366.368C493.87 368.448 497.342 369.488 501.414 369.488C506.658 369.488 510.789 367.438 513.807 363.336C516.854 359.264 519.022 352.818 520.311 344L523.782 320.138Z" fill="#B5076B"/>
<path d="M49.5547 390.621L50.9414 389.059H53.0117L55.4727 376.617C52.8034 376.617 50.6354 377.34 48.9688 378.785C47.3151 380.217 46.4883 382.092 46.4883 384.41L46.5078 384.84L42.6992 386.676C43.0378 382.678 44.5872 379.749 47.3477 377.887C50.1211 376.025 54.3008 375.094 59.8867 375.094H71.1562L69.3984 380.621H68.1484C68.3177 380.1 68.4023 379.586 68.4023 379.078C68.4023 377.385 65.7396 376.539 60.4141 376.539H59.5742L57.0938 389.059H65.6094L63.6758 391.051C61.5924 390.764 59.6133 390.621 57.7383 390.621H56.7812L55.6484 396.344C54.6979 401.161 52.8555 405.009 50.1211 407.887C47.3997 410.764 44.2292 412.203 40.6094 412.203C38.6562 412.203 36.9115 411.467 35.375 409.996L38.2461 407.066C39.2747 409.202 40.9284 410.27 43.207 410.27C45.2904 410.27 46.9245 409.326 48.1094 407.438C49.3073 405.562 50.3815 402.236 51.332 397.457L52.6992 390.621H49.5547ZM85.2383 393.395H84.8867C83.4154 396.663 81.6445 399.332 79.5742 401.402C77.5039 403.46 75.5638 404.488 73.7539 404.488C71.0065 404.488 69.6328 402.77 69.6328 399.332C69.6328 395.543 71.1432 391.832 74.1641 388.199C77.2891 384.436 81.1042 382.555 85.6094 382.555C87.4714 382.555 89.418 382.633 91.4492 382.789L90.043 388.57L88.1484 398.219C87.849 399.729 87.6992 400.706 87.6992 401.148C87.6992 401.969 88.0833 402.379 88.8516 402.379C90.1536 402.379 92.0938 400.947 94.6719 398.082L94.3203 399.898C91.4688 402.958 88.9102 404.488 86.6445 404.488C84.7565 404.488 83.8125 403.505 83.8125 401.539C83.8125 400.888 83.9688 399.781 84.2812 398.219L85.2383 393.395ZM86.8008 385.582C85.1602 384.853 83.5391 384.488 81.9375 384.488C79.5677 384.488 77.6732 385.986 76.2539 388.98C74.5872 392.522 73.7539 395.706 73.7539 398.531C73.7539 400.576 74.3529 401.598 75.5508 401.598C76.6706 401.598 78.2786 400.426 80.375 398.082C82.4844 395.725 84.3333 393.036 85.9219 390.016L86.8008 385.582ZM94.125 403.336L96.6836 400.699C98.3763 401.936 100.102 402.555 101.859 402.555C102.94 402.555 103.852 402.275 104.594 401.715C105.336 401.142 105.707 400.439 105.707 399.605C105.707 398.681 104.971 397.418 103.5 395.816L101.723 393.863C99.9909 391.962 99.125 390.374 99.125 389.098C99.125 387.327 99.9648 385.758 101.645 384.391C103.324 383.01 105.245 382.32 107.406 382.32C108.591 382.32 109.919 382.568 111.391 383.062L110.531 387.379H109.301L109.359 387.047C109.385 386.93 109.398 386.793 109.398 386.637C109.398 384.879 108.266 384 106 384C103.461 384 102.191 385.016 102.191 387.047C102.191 388.076 102.947 389.443 104.457 391.148L106.059 392.926C107.803 394.892 108.676 396.507 108.676 397.77C108.676 399.514 107.751 401.07 105.902 402.438C104.053 403.805 101.951 404.488 99.5938 404.488C97.9401 404.488 96.1172 404.104 94.125 403.336ZM114.203 404.234L115.648 398.219L118.324 384.723C119.262 380.009 121.026 376.344 123.617 373.727C126.221 371.096 129.385 369.781 133.109 369.781C134.398 369.781 135.57 369.918 136.625 370.191L133.949 372.984C132.426 372.294 131.124 371.949 130.043 371.949C127.973 371.949 126.417 372.704 125.375 374.215C124.333 375.712 123.396 378.57 122.562 382.789L120.453 393.395H120.766C122.38 390.061 124.216 387.385 126.273 385.367C128.331 383.336 130.238 382.32 131.996 382.32C134.145 382.32 135.219 383.505 135.219 385.875C135.219 386.656 135.108 387.594 134.887 388.688L132.992 398.219C132.693 399.716 132.543 400.693 132.543 401.148C132.543 401.969 132.927 402.379 133.695 402.379C134.997 402.379 136.938 400.947 139.516 398.082L139.164 399.898C136.312 402.958 133.754 404.488 131.488 404.488C129.613 404.488 128.676 403.505 128.676 401.539C128.676 400.888 128.826 399.781 129.125 398.219L131.039 388.648C131.182 387.906 131.254 387.281 131.254 386.773C131.254 385.719 130.863 385.191 130.082 385.191C127.608 385.191 124.158 389.137 119.73 397.027L118.324 404L114.203 404.234ZM154.691 398.082L154.34 399.898C151.488 402.958 148.93 404.488 146.664 404.488C144.789 404.488 143.852 403.505 143.852 401.539C143.852 400.875 144.001 399.781 144.301 398.258L145.648 391.461C146.013 389.534 146.195 388.251 146.195 387.613C146.195 386.52 145.772 385.973 144.926 385.973C144.34 385.973 143.292 386.201 141.781 386.656L142.016 385.445L151.566 382.32L150.082 388.57L148.168 398.219C147.868 399.729 147.719 400.693 147.719 401.109C147.719 401.956 148.103 402.379 148.871 402.379C150.16 402.379 152.1 400.947 154.691 398.082ZM147.523 378.922L148.832 376.266L154.34 372.672L152.66 376.266L147.523 378.922ZM162.367 404.488C160.661 404.488 159.236 403.824 158.09 402.496C156.957 401.155 156.391 399.488 156.391 397.496C156.391 393.746 157.81 390.283 160.648 387.105C163.487 383.915 166.579 382.32 169.926 382.32C171.736 382.32 173.227 382.971 174.398 384.273C175.57 385.576 176.156 387.236 176.156 389.254C176.156 393.147 174.737 396.663 171.898 399.801C169.06 402.926 165.883 404.488 162.367 404.488ZM164.594 402.789C166.521 402.789 168.214 401.552 169.672 399.078C171.143 396.591 171.879 393.707 171.879 390.426C171.879 386.116 170.564 383.961 167.934 383.961C166.072 383.961 164.392 385.243 162.895 387.809C161.41 390.361 160.668 393.238 160.668 396.441C160.668 400.673 161.977 402.789 164.594 402.789ZM181.039 404.234L182.484 398.219L184.398 388.57C184.698 387.073 184.848 386.096 184.848 385.641C184.848 384.833 184.464 384.43 183.695 384.43C182.419 384.43 180.479 385.855 177.875 388.707L178.227 386.91C181.065 383.85 183.624 382.32 185.902 382.32C187.777 382.32 188.715 383.297 188.715 385.25C188.715 385.914 188.565 387.021 188.266 388.57L187.309 393.395H187.602C189.229 390.061 191.065 387.385 193.109 385.367C195.167 383.336 197.081 382.32 198.852 382.32C200.987 382.32 202.055 383.505 202.055 385.875C202.055 386.643 201.944 387.581 201.723 388.688L199.828 398.219C199.529 399.729 199.379 400.706 199.379 401.148C199.379 401.969 199.763 402.379 200.531 402.379C201.833 402.379 203.78 400.947 206.371 398.082L206 399.898C203.161 402.958 200.603 404.488 198.324 404.488C196.449 404.488 195.512 403.505 195.512 401.539C195.512 400.888 195.668 399.781 195.98 398.219L197.875 388.648C198.031 387.906 198.109 387.281 198.109 386.773C198.109 385.719 197.719 385.191 196.938 385.191C194.451 385.191 191 389.137 186.586 397.027L185.16 404L181.039 404.234ZM236.723 393.395H236.371C234.9 396.663 233.129 399.332 231.059 401.402C228.988 403.46 227.048 404.488 225.238 404.488C222.491 404.488 221.117 402.77 221.117 399.332C221.117 395.543 222.628 391.832 225.648 388.199C228.773 384.436 232.589 382.555 237.094 382.555C238.956 382.555 240.902 382.633 242.934 382.789L241.527 388.57L239.633 398.219C239.333 399.729 239.184 400.706 239.184 401.148C239.184 401.969 239.568 402.379 240.336 402.379C241.638 402.379 243.578 400.947 246.156 398.082L245.805 399.898C242.953 402.958 240.395 404.488 238.129 404.488C236.241 404.488 235.297 403.505 235.297 401.539C235.297 400.888 235.453 399.781 235.766 398.219L236.723 393.395ZM238.285 385.582C236.645 384.853 235.023 384.488 233.422 384.488C231.052 384.488 229.158 385.986 227.738 388.98C226.072 392.522 225.238 395.706 225.238 398.531C225.238 400.576 225.837 401.598 227.035 401.598C228.155 401.598 229.763 400.426 231.859 398.082C233.969 395.725 235.818 393.036 237.406 390.016L238.285 385.582ZM249.516 404.234L250.961 398.219L252.875 388.57C253.174 387.073 253.324 386.096 253.324 385.641C253.324 384.833 252.94 384.43 252.172 384.43C250.896 384.43 248.956 385.855 246.352 388.707L246.703 386.91C249.542 383.85 252.1 382.32 254.379 382.32C256.254 382.32 257.191 383.297 257.191 385.25C257.191 385.914 257.042 387.021 256.742 388.57L255.785 393.395H256.078C257.706 390.061 259.542 387.385 261.586 385.367C263.643 383.336 265.557 382.32 267.328 382.32C269.464 382.32 270.531 383.505 270.531 385.875C270.531 386.643 270.421 387.581 270.199 388.688L268.305 398.219C268.005 399.729 267.855 400.706 267.855 401.148C267.855 401.969 268.24 402.379 269.008 402.379C270.31 402.379 272.257 400.947 274.848 398.082L274.477 399.898C271.638 402.958 269.079 404.488 266.801 404.488C264.926 404.488 263.988 403.505 263.988 401.539C263.988 400.888 264.145 399.781 264.457 398.219L266.352 388.648C266.508 387.906 266.586 387.281 266.586 386.773C266.586 385.719 266.195 385.191 265.414 385.191C262.927 385.191 259.477 389.137 255.062 397.027L253.637 404L249.516 404.234ZM291.918 393.395H291.566C290.069 396.676 288.292 399.345 286.234 401.402C284.177 403.46 282.25 404.488 280.453 404.488C277.693 404.488 276.312 402.763 276.312 399.312C276.312 396.969 276.983 394.514 278.324 391.949C279.678 389.384 281.423 387.229 283.559 385.484C284.991 384.326 286.423 383.551 287.855 383.16C289.288 382.757 291.365 382.555 294.086 382.555C294.854 379.977 295.655 378.01 296.488 376.656C297.322 375.289 298.493 374.013 300.004 372.828C302.582 370.797 305.427 369.781 308.539 369.781C309.828 369.781 311 369.918 312.055 370.191L309.379 372.965C307.829 372.288 306.514 371.949 305.434 371.949C303.35 371.949 301.781 372.711 300.727 374.234C299.672 375.745 298.728 378.583 297.895 382.75L294.828 398.219C294.516 399.729 294.359 400.693 294.359 401.109C294.359 401.956 294.743 402.379 295.512 402.379C296.814 402.379 298.76 400.947 301.352 398.082L300.98 399.898C298.142 402.958 295.59 404.488 293.324 404.488C291.436 404.488 290.492 403.505 290.492 401.539C290.492 400.901 290.648 399.794 290.961 398.219L291.918 393.395ZM293.48 385.582C291.866 384.853 290.238 384.488 288.598 384.488C286.241 384.488 284.353 385.986 282.934 388.98C281.254 392.522 280.414 395.706 280.414 398.531C280.414 400.576 281.02 401.598 282.23 401.598C283.35 401.598 284.958 400.419 287.055 398.062C289.164 395.706 291.013 393.017 292.602 389.996L293.48 385.582ZM331.918 393.395H331.566C330.095 396.663 328.324 399.332 326.254 401.402C324.184 403.46 322.243 404.488 320.434 404.488C317.686 404.488 316.312 402.77 316.312 399.332C316.312 395.543 317.823 391.832 320.844 388.199C323.969 384.436 327.784 382.555 332.289 382.555C334.151 382.555 336.098 382.633 338.129 382.789L336.723 388.57L334.828 398.219C334.529 399.729 334.379 400.706 334.379 401.148C334.379 401.969 334.763 402.379 335.531 402.379C336.833 402.379 338.773 400.947 341.352 398.082L341 399.898C338.148 402.958 335.59 404.488 333.324 404.488C331.436 404.488 330.492 403.505 330.492 401.539C330.492 400.888 330.648 399.781 330.961 398.219L331.918 393.395ZM333.48 385.582C331.84 384.853 330.219 384.488 328.617 384.488C326.247 384.488 324.353 385.986 322.934 388.98C321.267 392.522 320.434 395.706 320.434 398.531C320.434 400.576 321.033 401.598 322.23 401.598C323.35 401.598 324.958 400.426 327.055 398.082C329.164 395.725 331.013 393.036 332.602 390.016L333.48 385.582ZM360.453 398.629L360.16 400.152C355.889 403.043 352.387 404.488 349.652 404.488C347.764 404.488 346.247 403.85 345.102 402.574C343.956 401.298 343.383 399.612 343.383 397.516C343.383 393.727 344.815 390.25 347.68 387.086C350.544 383.909 353.695 382.32 357.133 382.32C358.643 382.32 360.147 382.652 361.645 383.316L360.336 388.336H359.125L359.184 388.043C359.314 387.431 359.379 386.982 359.379 386.695C359.379 384.898 358.161 384 355.727 384C353.435 384 351.527 385.224 350.004 387.672C348.48 390.12 347.719 393.193 347.719 396.891C347.719 400.419 349.034 402.184 351.664 402.184C354.164 402.184 357.094 400.999 360.453 398.629ZM382.328 398.629L382.035 400.152C377.764 403.043 374.262 404.488 371.527 404.488C369.639 404.488 368.122 403.85 366.977 402.574C365.831 401.298 365.258 399.612 365.258 397.516C365.258 393.727 366.69 390.25 369.555 387.086C372.419 383.909 375.57 382.32 379.008 382.32C380.518 382.32 382.022 382.652 383.52 383.316L382.211 388.336H381L381.059 388.043C381.189 387.431 381.254 386.982 381.254 386.695C381.254 384.898 380.036 384 377.602 384C375.31 384 373.402 385.224 371.879 387.672C370.355 390.12 369.594 393.193 369.594 396.891C369.594 400.419 370.909 402.184 373.539 402.184C376.039 402.184 378.969 400.999 382.328 398.629ZM404.242 398.668L403.949 400.172C399.809 403.049 396.28 404.488 393.363 404.488C391.514 404.488 390.01 403.844 388.852 402.555C387.706 401.253 387.133 399.573 387.133 397.516C387.133 393.844 388.539 390.393 391.352 387.164C394.164 383.922 397.165 382.301 400.355 382.301C401.514 382.301 402.452 382.691 403.168 383.473C403.884 384.254 404.242 385.27 404.242 386.52C404.242 389.02 402.966 391.168 400.414 392.965C397.862 394.762 394.815 395.66 391.273 395.66L391.254 396.539C391.254 400.341 392.647 402.242 395.434 402.242C397.842 402.242 400.779 401.051 404.242 398.668ZM391.312 394.449C394.229 394.215 396.508 393.466 398.148 392.203C399.789 390.927 400.609 389.28 400.609 387.262C400.609 385.27 399.887 384.273 398.441 384.273C396.879 384.273 395.368 385.315 393.91 387.398C392.452 389.469 391.586 391.819 391.312 394.449ZM406.234 403.336L408.793 400.699C410.486 401.936 412.211 402.555 413.969 402.555C415.049 402.555 415.961 402.275 416.703 401.715C417.445 401.142 417.816 400.439 417.816 399.605C417.816 398.681 417.081 397.418 415.609 395.816L413.832 393.863C412.1 391.962 411.234 390.374 411.234 389.098C411.234 387.327 412.074 385.758 413.754 384.391C415.434 383.01 417.354 382.32 419.516 382.32C420.701 382.32 422.029 382.568 423.5 383.062L422.641 387.379H421.41L421.469 387.047C421.495 386.93 421.508 386.793 421.508 386.637C421.508 384.879 420.375 384 418.109 384C415.57 384 414.301 385.016 414.301 387.047C414.301 388.076 415.056 389.443 416.566 391.148L418.168 392.926C419.913 394.892 420.785 396.507 420.785 397.77C420.785 399.514 419.861 401.07 418.012 402.438C416.163 403.805 414.06 404.488 411.703 404.488C410.049 404.488 408.227 404.104 406.234 403.336ZM424.281 403.336L426.84 400.699C428.533 401.936 430.258 402.555 432.016 402.555C433.096 402.555 434.008 402.275 434.75 401.715C435.492 401.142 435.863 400.439 435.863 399.605C435.863 398.681 435.128 397.418 433.656 395.816L431.879 393.863C430.147 391.962 429.281 390.374 429.281 389.098C429.281 387.327 430.121 385.758 431.801 384.391C433.48 383.01 435.401 382.32 437.562 382.32C438.747 382.32 440.076 382.568 441.547 383.062L440.688 387.379H439.457L439.516 387.047C439.542 386.93 439.555 386.793 439.555 386.637C439.555 384.879 438.422 384 436.156 384C433.617 384 432.348 385.016 432.348 387.047C432.348 388.076 433.103 389.443 434.613 391.148L436.215 392.926C437.96 394.892 438.832 396.507 438.832 397.77C438.832 399.514 437.908 401.07 436.059 402.438C434.21 403.805 432.107 404.488 429.75 404.488C428.096 404.488 426.273 404.104 424.281 403.336ZM450.883 404.488C449.177 404.488 447.751 403.824 446.605 402.496C445.473 401.155 444.906 399.488 444.906 397.496C444.906 393.746 446.326 390.283 449.164 387.105C452.003 383.915 455.095 382.32 458.441 382.32C460.251 382.32 461.742 382.971 462.914 384.273C464.086 385.576 464.672 387.236 464.672 389.254C464.672 393.147 463.253 396.663 460.414 399.801C457.576 402.926 454.398 404.488 450.883 404.488ZM453.109 402.789C455.036 402.789 456.729 401.552 458.188 399.078C459.659 396.591 460.395 393.707 460.395 390.426C460.395 386.116 459.079 383.961 456.449 383.961C454.587 383.961 452.908 385.243 451.41 387.809C449.926 390.361 449.184 393.238 449.184 396.441C449.184 400.673 450.492 402.789 453.109 402.789ZM469.809 404.234L471.254 398.219L473.148 388.668C473.344 387.704 473.441 386.871 473.441 386.168C473.441 385.048 473.051 384.488 472.27 384.488C470.889 384.488 468.917 385.96 466.352 388.902L466.703 387.164C469.711 383.922 472.322 382.301 474.535 382.301C476.41 382.301 477.348 383.375 477.348 385.523C477.348 386.474 477.23 387.529 476.996 388.688L476.059 393.395H476.312C477.862 390.139 479.691 387.483 481.801 385.426C483.923 383.355 485.863 382.32 487.621 382.32C488.533 382.32 489.346 382.522 490.062 382.926L487.465 386.441C486.697 385.934 486.046 385.68 485.512 385.68C482.973 385.68 479.594 389.41 475.375 396.871L473.949 404L469.809 404.234ZM504.145 398.082L503.793 399.898C500.941 402.958 498.383 404.488 496.117 404.488C494.242 404.488 493.305 403.505 493.305 401.539C493.305 400.875 493.454 399.781 493.754 398.258L495.102 391.461C495.466 389.534 495.648 388.251 495.648 387.613C495.648 386.52 495.225 385.973 494.379 385.973C493.793 385.973 492.745 386.201 491.234 386.656L491.469 385.445L501.02 382.32L499.535 388.57L497.621 398.219C497.322 399.729 497.172 400.693 497.172 401.109C497.172 401.956 497.556 402.379 498.324 402.379C499.613 402.379 501.553 400.947 504.145 398.082ZM496.977 378.922L498.285 376.266L503.793 372.672L502.113 376.266L496.977 378.922ZM522.953 398.668L522.66 400.172C518.52 403.049 514.991 404.488 512.074 404.488C510.225 404.488 508.721 403.844 507.562 402.555C506.417 401.253 505.844 399.573 505.844 397.516C505.844 393.844 507.25 390.393 510.062 387.164C512.875 383.922 515.876 382.301 519.066 382.301C520.225 382.301 521.163 382.691 521.879 383.473C522.595 384.254 522.953 385.27 522.953 386.52C522.953 389.02 521.677 391.168 519.125 392.965C516.573 394.762 513.526 395.66 509.984 395.66L509.965 396.539C509.965 400.341 511.358 402.242 514.145 402.242C516.553 402.242 519.49 401.051 522.953 398.668ZM510.023 394.449C512.94 394.215 515.219 393.466 516.859 392.203C518.5 390.927 519.32 389.28 519.32 387.262C519.32 385.27 518.598 384.273 517.152 384.273C515.59 384.273 514.079 385.315 512.621 387.398C511.163 389.469 510.297 391.819 510.023 394.449ZM524.945 403.336L527.504 400.699C529.197 401.936 530.922 402.555 532.68 402.555C533.76 402.555 534.672 402.275 535.414 401.715C536.156 401.142 536.527 400.439 536.527 399.605C536.527 398.681 535.792 397.418 534.32 395.816L532.543 393.863C530.811 391.962 529.945 390.374 529.945 389.098C529.945 387.327 530.785 385.758 532.465 384.391C534.145 383.01 536.065 382.32 538.227 382.32C539.411 382.32 540.74 382.568 542.211 383.062L541.352 387.379H540.121L540.18 387.047C540.206 386.93 540.219 386.793 540.219 386.637C540.219 384.879 539.086 384 536.82 384C534.281 384 533.012 385.016 533.012 387.047C533.012 388.076 533.767 389.443 535.277 391.148L536.879 392.926C538.624 394.892 539.496 396.507 539.496 397.77C539.496 399.514 538.572 401.07 536.723 402.438C534.874 403.805 532.771 404.488 530.414 404.488C528.76 404.488 526.938 404.104 524.945 403.336Z" fill="#B5076B"/>
</svg>
