<?xml version="1.0" standalone="no"?>
<!DOCTYPE svg PUBLIC "-//W3C//DTD SVG 20010904//EN"
 "http://www.w3.org/TR/2001/REC-SVG-20010904/DTD/svg10.dtd">
<svg version="1.0" xmlns="http://www.w3.org/2000/svg"
 width="1124.000000pt" height="1124.000000pt" viewBox="0 0 1124.000000 1124.000000"
 preserveAspectRatio="xMidYMid meet">
<metadata>
Created by potrace 1.11, written by Peter Selinger 2001-2013
</metadata>
<g transform="translate(0.000000,1124.000000) scale(0.100000,-0.100000)"
fill="#000000" stroke="none">
<path d="M6387 10903 c-1 -1 -709 -4 -1572 -8 -864 -3 -1589 -7 -1613 -10
-136 -12 -297 -56 -428 -116 -49 -23 -194 -107 -204 -118 -3 -3 -23 -19 -45
-35 -72 -52 -219 -209 -276 -296 -31 -47 -88 -146 -126 -220 -39 -74 -101
-193 -138 -265 -38 -71 -74 -141 -82 -155 -7 -14 -13 -30 -13 -37 0 -6 -3 -13
-8 -15 -4 -1 -29 -46 -56 -98 -47 -92 -110 -214 -241 -465 -35 -66 -100 -192
-145 -280 -46 -88 -102 -196 -125 -240 -23 -44 -82 -156 -130 -250 -109 -211
-207 -400 -403 -775 -33 -63 -94 -182 -137 -265 -43 -82 -103 -199 -135 -260
-32 -60 -90 -173 -130 -250 -40 -77 -101 -194 -135 -260 -139 -265 -180 -419
-180 -675 0 -269 28 -367 210 -745 90 -186 159 -330 250 -520 29 -60 83 -173
120 -250 37 -77 91 -189 120 -250 29 -60 83 -173 120 -250 37 -77 93 -194 125
-260 32 -66 88 -183 125 -260 37 -77 89 -185 115 -240 26 -55 80 -167 120
-250 115 -239 160 -333 170 -357 6 -13 14 -30 19 -38 6 -8 28 -53 50 -100 37
-80 102 -216 243 -510 33 -69 84 -174 113 -235 315 -662 339 -703 482 -851
157 -162 315 -263 520 -333 204 -69 141 -66 1333 -64 1802 2 3832 12 3880 18
68 9 151 25 186 36 17 5 40 11 50 13 35 7 150 54 215 87 112 57 265 169 339
248 102 107 197 247 250 366 17 39 40 88 50 111 10 22 52 117 93 210 41 93 86
194 100 224 13 30 55 125 92 210 37 85 80 182 95 215 15 33 66 148 113 255 47
107 99 224 115 260 16 36 70 157 120 270 49 113 99 225 110 250 12 25 73 164
137 310 64 146 127 288 140 315 12 28 46 104 75 170 28 66 60 138 70 160 10
22 98 220 195 440 97 220 221 499 275 620 114 257 143 335 165 440 23 113 29
178 28 296 0 94 -5 134 -29 264 -7 41 -38 139 -62 200 -19 46 -76 165 -379
785 -64 129 -162 330 -218 445 -137 280 -277 567 -425 870 -67 138 -169 345
-225 460 -56 116 -149 305 -205 420 -56 116 -153 314 -215 440 -227 465 -266
542 -306 605 -194 301 -520 520 -858 576 -18 3 -43 8 -55 12 -18 5 -1824 10
-1829 5z"/>
</g>
</svg>
